<?xml version="1.0" encoding="utf-8"?>
<!-- Generator: Adobe Illustrator 24.2.1, SVG Export Plug-In . SVG Version: 6.00 Build 0)  -->
<svg version="1.1"
	 id="svg2" xmlns:cc="http://creativecommons.org/ns#" xmlns:dc="http://purl.org/dc/elements/1.1/" xmlns:inkscape="http://www.inkscape.org/namespaces/inkscape" xmlns:rdf="http://www.w3.org/1999/02/22-rdf-syntax-ns#" xmlns:sodipodi="http://sodipodi.sourceforge.net/DTD/sodipodi-0.dtd" xmlns:svg="http://www.w3.org/2000/svg"
	 xmlns="http://www.w3.org/2000/svg" xmlns:xlink="http://www.w3.org/1999/xlink" x="0px" y="0px" width="161.568px"
	 height="69.136px" viewBox="0 0 161.568 69.136" enable-background="new 0 0 161.568 69.136" xml:space="preserve">
<sodipodi:namedview  bordercolor="#666666" borderopacity="1" fit-margin-bottom="0" fit-margin-left="0" fit-margin-right="0" fit-margin-top="0" gridtolerance="10" guidetolerance="10" id="namedview4" inkscape:current-layer="g10" inkscape:cx="99.270461" inkscape:cy="14.895969" inkscape:pageopacity="0" inkscape:pageshadow="2" inkscape:window-height="480" inkscape:window-maximized="0" inkscape:window-width="640" inkscape:window-x="0" inkscape:window-y="0" inkscape:zoom="1.7940585" objecttolerance="10" pagecolor="#ffffff" showgrid="false">
	</sodipodi:namedview>
<g id="g10" transform="matrix(1.25,0,0,-1.25,-844.51807,842.20401)" inkscape:groupmode="layer" inkscape:label="dp20mars2015vf">
	<g id="g38" transform="translate(274.68446,-24.971315)">
		<g>
			<g id="g40" display="none">
				<g id="g46" transform="translate(443.3698,672.2343)" display="inline">
					<path id="path48" inkscape:connector-curvature="0" fill="#464141" d="M0,0c0-1.177-0.738-2.157-1.972-2.157
						S-3.944-1.177-3.944,0c0,1.176,0.738,2.156,1.972,2.156S0,1.176,0,0 M-3.223,0c0-0.791,0.369-1.569,1.251-1.569
						S-0.721-0.791-0.721,0c0,0.789-0.369,1.568-1.251,1.568S-3.223,0.789-3.223,0"/>
				</g>
				<g id="g50" transform="translate(444.6038,674.2933)" display="inline">
					<path id="path52" inkscape:connector-curvature="0" fill="#464141" d="M0,0h1.966c0.899,0,1.36-0.416,1.36-1.113
						c0-0.791-0.547-0.992-0.68-1.039v-0.011c0.248-0.035,0.612-0.22,0.612-0.87c0-0.48,0.068-0.918,0.224-1.085H2.71
						C2.6-3.939,2.6-3.713,2.6-3.513c0,0.756-0.156,1.091-0.819,1.091h-1.06v-1.696H0V0z M0.721-1.874h1.181
						c0.457,0,0.704,0.223,0.704,0.657c0,0.525-0.34,0.628-0.715,0.628h-1.17L0.721-1.874"/>
				</g>
				<g id="g54" transform="translate(452.8313,670.1757)" display="inline">
					<path id="path56" inkscape:connector-curvature="0" fill="#464141" d="M0,0h-0.461l-0.11,0.484
						c-0.387-0.438-0.738-0.582-1.24-0.582c-1.233,0-1.971,0.98-1.971,2.157c0,1.176,0.738,2.156,1.971,2.156
						c0.9,0,1.655-0.478,1.765-1.408h-0.703c-0.07,0.544-0.543,0.82-1.062,0.82c-0.882,0-1.251-0.779-1.251-1.568
						c0-0.791,0.369-1.569,1.251-1.569c0.738-0.011,1.142,0.432,1.153,1.13h-1.095v0.547H0V0"/>
				</g>
				<g id="g58" transform="translate(455.2932,674.2933)" display="inline">
					<path id="path60" inkscape:connector-curvature="0" fill="#464141" d="M0,0h0.767l1.585-4.118H1.579l-0.386,1.09H-0.45
						l-0.386-1.09H-1.58L0,0z M-0.254-2.48h1.258L0.386-0.711H0.381H0.369C0.369-0.711-0.254-2.48-0.254-2.48z"/>
				</g>
				<g id="g62" transform="translate(458.5851,674.2933)" display="inline">
					<path id="path64" inkscape:connector-curvature="0" fill="#464141" d="M0,0h0.761l1.88-3.033h0.012V0h0.685v-4.118h-0.76
						L0.703-1.091H0.686v-3.027H0V0z"/>
				</g>
				<path id="path66" inkscape:connector-curvature="0" display="inline" fill="#464141" d="M463.354,674.293h0.721v-4.118h-0.721
					V674.293z"/>
				<g id="g68" transform="translate(466.0057,671.5482)" display="inline">
					<path id="path70" inkscape:connector-curvature="0" fill="#464141" d="M0,0c0-0.634,0.467-0.883,1.043-0.883
						c0.635,0,0.871,0.312,0.871,0.623c0,0.317-0.173,0.445-0.339,0.508c-0.289,0.11-0.664,0.183-1.229,0.34
						c-0.704,0.189-0.911,0.617-0.911,1.044c0,0.824,0.761,1.21,1.505,1.21c0.859,0,1.58-0.455,1.58-1.314H1.799
						C1.764,2.059,1.406,2.254,0.911,2.254c-0.334,0-0.755-0.12-0.755-0.535c0-0.29,0.196-0.449,0.489-0.532
						C0.709,1.169,1.62,0.935,1.833,0.871c0.543-0.163,0.802-0.623,0.802-1.05c0-0.923-0.819-1.292-1.637-1.292
						C0.058-1.471-0.703-1.02-0.72,0H0"/>
				</g>
				<g id="g72" transform="translate(470.947,674.2933)" display="inline">
					<path id="path74" inkscape:connector-curvature="0" fill="#464141" d="M0,0h0.766l1.586-4.118H1.58l-0.387,1.09H-0.45
						l-0.386-1.09H-1.58L0,0z M-0.254-2.48h1.257L0.386-0.711H0.381H0.369C0.369-0.711-0.254-2.48-0.254-2.48z"/>
				</g>
				<g id="g76" transform="translate(473.3464,674.2933)" display="inline">
					<path id="path78" inkscape:connector-curvature="0" fill="#464141" d="M0,0h3.333v-0.623H2.024v-3.495h-0.72v3.495L0-0.623V0z"
						/>
				</g>
				<path id="path80" inkscape:connector-curvature="0" display="inline" fill="#464141" d="M477.734,674.293h0.72v-4.118h-0.72
					V674.293z"/>
				<g id="g82" transform="translate(483.6383,672.2343)" display="inline">
					<path id="path84" inkscape:connector-curvature="0" fill="#464141" d="M0,0c0-1.177-0.738-2.157-1.972-2.157
						S-3.944-1.177-3.944,0c0,1.176,0.738,2.156,1.972,2.156S0,1.176,0,0 M-3.223,0c0-0.791,0.368-1.569,1.251-1.569
						c0.882,0,1.251,0.778,1.251,1.569c0,0.789-0.369,1.568-1.251,1.568C-2.855,1.568-3.223,0.789-3.223,0"/>
				</g>
				<g id="g86" transform="translate(484.8434,674.2933)" display="inline">
					<path id="path88" inkscape:connector-curvature="0" fill="#464141" d="M0,0h0.761l1.88-3.033h0.011V0h0.686v-4.118H2.577
						L0.703-1.091H0.686v-3.027H0V0z"/>
				</g>
				<path id="path90" inkscape:connector-curvature="0" display="inline" fill="#464141" d="M421.703,667.208h0.721v-4.117h-0.721
					V667.208z"/>
				<g id="g92" transform="translate(423.8524,667.2083)" display="inline">
					<path id="path94" inkscape:connector-curvature="0" fill="#464141" d="M0,0h0.761l1.88-3.034h0.012V0h0.685v-4.117h-0.76
						L0.704-1.09H0.687v-3.027H0V0z"/>
				</g>
				<g id="g96" transform="translate(428.2293,667.2083)" display="inline">
					<path id="path98" inkscape:connector-curvature="0" fill="#464141" d="M0,0h3.332v-0.623H2.023v-3.494h-0.72v3.494L0-0.623V0z"
						/>
				</g>
				<g id="g100" transform="translate(432.6169,667.2083)" display="inline">
					<path id="path102" inkscape:connector-curvature="0" fill="#464141" d="M0,0h2.964v-0.623H0.721v-1.078h2.076V-2.29H0.721
						v-1.204h2.282v-0.623H0V0z"/>
				</g>
				<g id="g104" transform="translate(436.8256,667.2083)" display="inline">
					<path id="path106" inkscape:connector-curvature="0" fill="#464141" d="M0,0h1.966c0.899,0,1.361-0.415,1.361-1.113
						c0-0.79-0.547-0.992-0.68-1.038v-0.011c0.248-0.035,0.611-0.219,0.611-0.872c0-0.479,0.069-0.916,0.224-1.083H2.709
						C2.6-3.938,2.6-3.713,2.6-3.513c0,0.756-0.156,1.091-0.818,1.091H0.721v-1.695H0V0z M0.721-1.874h1.182
						c0.455,0,0.704,0.224,0.704,0.656c0,0.526-0.341,0.63-0.716,0.63h-1.17L0.721-1.874"/>
				</g>
				<g id="g108" transform="translate(441.4323,667.2083)" display="inline">
					<path id="path110" inkscape:connector-curvature="0" fill="#464141" d="M0,0h0.761l1.88-3.034h0.011V0h0.686v-4.117H2.577
						L0.703-1.09H0.686v-3.027H0V0z"/>
				</g>
				<g id="g112" transform="translate(447.3016,667.2083)" display="inline">
					<path id="path114" inkscape:connector-curvature="0" fill="#464141" d="M0,0h0.767l1.586-4.117H1.58L1.193-3.029h-1.642
						l-0.387-1.088H-1.58L0,0z M-0.254-2.479h1.258l-0.618,1.77H0.381H0.37C0.37-0.709-0.254-2.479-0.254-2.479z"/>
				</g>
				<g id="g116" transform="translate(449.7021,667.2083)" display="inline">
					<path id="path118" inkscape:connector-curvature="0" fill="#464141" d="M0,0h3.333v-0.623h-1.31v-3.494H1.302v3.494L0-0.623V0z
						"/>
				</g>
				<path id="path120" inkscape:connector-curvature="0" display="inline" fill="#464141" d="M454.09,667.208h0.72v-4.117h-0.72
					V667.208z"/>
				<g id="g122" transform="translate(459.994,665.1496)" display="inline">
					<path id="path124" inkscape:connector-curvature="0" fill="#464141" d="M0,0c0-1.176-0.739-2.157-1.972-2.157
						c-1.234,0-1.972,0.981-1.972,2.157s0.738,2.155,1.972,2.155C-0.739,2.155,0,1.176,0,0 M-3.224,0c0-0.79,0.37-1.569,1.252-1.569
						c0.881,0,1.25,0.779,1.25,1.569c0,0.789-0.369,1.568-1.25,1.568C-2.854,1.568-3.224,0.789-3.224,0"/>
				</g>
				<g id="g126" transform="translate(461.1985,667.2083)" display="inline">
					<path id="path128" inkscape:connector-curvature="0" fill="#464141" d="M0,0h0.761l1.88-3.034h0.011V0h0.686v-4.117H2.577
						L0.703-1.09H0.685v-3.027H0V0z"/>
				</g>
				<g id="g130" transform="translate(467.0674,667.2083)" display="inline">
					<path id="path132" inkscape:connector-curvature="0" fill="#464141" d="M0,0h0.767l1.585-4.117H1.58L1.195-3.029h-1.644
						l-0.386-1.088h-0.744L0,0z M-0.253-2.479h1.257l-0.617,1.77H0.38H0.369C0.369-0.709-0.253-2.479-0.253-2.479z"/>
				</g>
				<g id="g134" transform="translate(470.3892,667.2083)" display="inline">
					<path id="path136" inkscape:connector-curvature="0" fill="#464141" d="M0,0h0.72v-3.494h2.094v-0.623H0V0z"/>
				</g>
				<g id="g138" transform="translate(474.2747,667.2083)" display="inline">
					<path id="path140" inkscape:connector-curvature="0" fill="#464141" d="M0,0h2.963v-0.623H0.721v-1.078h2.075V-2.29H0.721
						v-1.204h2.283v-0.623H0V0z"/>
				</g>
				<g id="g142" transform="translate(480.4607,667.2083)" display="inline">
					<path id="path144" inkscape:connector-curvature="0" fill="#464141" d="M0,0h1.707c1.268,0,1.816-0.923,1.816-2.059
						c0-1.135-0.548-2.058-1.816-2.058H0V0z M0.722-3.529H1.43c1.13,0,1.372,0.645,1.372,1.47c0,0.824-0.242,1.471-1.372,1.471
						H0.722L0.722-3.529"/>
				</g>
				<g id="g146" transform="translate(485.2003,667.2083)" display="inline">
					<path id="path148" inkscape:connector-curvature="0" fill="#464141" d="M0,0h2.964v-0.623H0.72v-1.078h2.076V-2.29H0.72v-1.204
						h2.284v-0.623H0V0z"/>
				</g>
				<g id="g150" transform="translate(401.782,651.7371)" display="inline">
					<path id="path152" inkscape:connector-curvature="0" fill="#464141" d="M0,0v7.289c0,0.475-0.379,0.853-0.852,0.853v0.567h2.84
						v-9.844c0-1.249,1.003-2.274,2.273-2.274v-0.85C1.893-4.259,0-2.347,0,0"/>
				</g>
				<g id="g154" transform="translate(411.2294,647.6847)" display="inline">
					<path id="path156" inkscape:connector-curvature="0" fill="#464141" d="M0,0c-2.348,0-4.259,1.969-4.259,4.375
						c0,2.423,1.931,4.394,4.279,4.394c0.739,0,1.495-0.154,1.988-0.739v0.492h2.007v-7.12c0-0.473,0.379-0.833,0.833-0.833V0H0z
						 M2.14,5.758c0,1.174-0.946,2.118-2.12,2.118c-1.155,0-2.14-0.944-2.14-2.118V2.991c0-1.192,0.985-2.139,2.14-2.139h2.12V5.758
						"/>
				</g>
				<g id="g158" transform="translate(426.3984,658.458)" display="inline">
					<path id="path160" inkscape:connector-curvature="0" fill="#464141" d="M0,0c0,0.74-0.625,1.347-1.344,1.347
						C-2.101,1.347-2.707,0.74-2.707,0v-2.251h2.329v-0.853h-2.329v-7.669h-1.989v7.102c0,0.472-0.379,0.87-0.852,0.87v0.55h0.852
						v1.381c0,1.666,1.383,3.067,3.087,3.067c0.852,0,1.609-0.358,2.178-0.887V0H0"/>
				</g>
				<g id="g162" transform="translate(434.1058,654.4827)" display="inline">
					<path id="path164" inkscape:connector-curvature="0" fill="#464141" d="M0,0c-0.436,0.512-0.947,0.776-1.648,0.776
						c-0.776,0-1.401-0.739-1.401-1.515v-6.059h-2.008v7.081c0,0.475-0.378,0.853-0.851,0.853v0.588h2.839V1.155
						c0.607,0.531,1.459,0.776,2.292,0.776c0.492,0,0.965-0.057,1.402-0.227L0,0"/>
				</g>
				<g id="g166" transform="translate(439.0357,647.6847)" display="inline">
					<path id="path168" inkscape:connector-curvature="0" fill="#464141" d="M0,0c-2.348,0-4.26,1.969-4.26,4.375
						c0,2.423,1.93,4.394,4.279,4.394c0.738,0,1.496-0.154,1.987-0.739v0.492h2.008v-7.12c0-0.473,0.378-0.833,0.834-0.833l0-0.569
						H0z M2.139,5.758c0,1.174-0.946,2.118-2.12,2.118c-1.156,0-2.14-0.944-2.14-2.118V2.991c0-1.192,0.984-2.139,2.14-2.139h2.12
						V5.758"/>
				</g>
				<g id="g170" transform="translate(452.0948,647.6847)" display="inline">
					<path id="path172" inkscape:connector-curvature="0" fill="#464141" d="M0,0v5.927c0,1.079-0.909,1.949-1.988,1.949
						c-1.117,0-1.988-0.87-1.988-1.949V0h-1.855v7.102c0,0.472-0.38,0.851-0.853,0.851v0.569h2.84V8.105
						c0.531,0.379,1.117,0.624,1.856,0.624c2.443,0,3.957-1.703,3.957-4.354V1.44c0-0.474,0.379-0.852,0.853-0.852l0-0.588H0"/>
				</g>
				<g id="g174" transform="translate(460.4659,647.6847)" display="inline">
					<path id="path176" inkscape:connector-curvature="0" fill="#464141" d="M0,0c-2.367,0-4.262,1.969-4.262,4.375
						c0,2.423,1.895,4.394,4.262,4.394c0.983,0,1.949-0.418,2.688-1.023V5.758H2.12c0,1.174-0.966,2.118-2.12,2.118
						c-1.194,0-2.14-0.944-2.14-2.118V2.991c0-1.192,0.946-2.139,2.14-2.139h2.688V0H0"/>
				</g>
				<g id="g178" transform="translate(469.0793,647.4779)" display="inline">
					<path id="path180" inkscape:connector-curvature="0" fill="#464141" d="M0,0c-2.348,0-4.26,2.006-4.26,4.487
						c0,2.461,1.912,4.488,4.26,4.488s4.26-2.027,4.26-4.488C4.26,2.006,2.348,0,0,0 M2.14,5.964c0,1.174-0.946,2.119-2.14,2.119
						c-1.174,0-2.119-0.945-2.119-2.119V2.896c0-1.174,0.945-2.12,2.119-2.12c1.194,0,2.14,0.946,2.14,2.12V5.964"/>
				</g>
				<g id="g182" transform="translate(479.5891,647.4387)" display="inline">
					<path id="path184" inkscape:connector-curvature="0" fill="#464141" d="M0,0c-0.74,0-1.496,0.153-1.989,0.737v-3.312
						c0-0.473,0.379-0.852,0.853-0.852v-0.586h-2.841V7.348c0,0.472-0.36,0.832-0.833,0.832v0.588h4.828
						c2.367,0,4.261-1.97,4.261-4.375C4.279,1.97,2.366,0,0,0 M2.12,5.794c0,1.157-0.947,2.121-2.12,2.121h-2.14V2.916
						c0-1.155,0.947-2.12,2.14-2.12c1.173,0,2.12,0.965,2.12,2.12V5.794"/>
				</g>
				<g id="g186" transform="translate(492.0289,647.6847)" display="inline">
					<path id="path188" inkscape:connector-curvature="0" fill="#464141" d="M0,0v5.89c0,1.098-0.89,1.986-1.988,1.986
						S-3.976,6.988-3.976,5.89V0h-1.837v11.342c0,0.475-0.378,0.853-0.852,0.853v0.567h2.841V8.105
						c0.511,0.379,1.116,0.624,1.836,0.624c2.444,0,3.957-1.703,3.957-4.373V1.44c0-0.474,0.379-0.852,0.852-0.852V0H0"/>
				</g>
				<g id="g190" transform="translate(500.4177,647.4779)" display="inline">
					<path id="path192" inkscape:connector-curvature="0" fill="#464141" d="M0,0c-2.348,0-4.261,2.006-4.261,4.487
						c0,2.461,1.913,4.488,4.261,4.488s4.26-2.027,4.26-4.488C4.26,2.006,2.348,0,0,0 M2.139,5.964c0,1.174-0.947,2.119-2.139,2.119
						c-1.174,0-2.122-0.945-2.122-2.119V2.896c0-1.174,0.948-2.12,2.122-2.12c1.192,0,2.139,0.946,2.139,2.12V5.964"/>
				</g>
				<g id="g194" transform="translate(512.8024,647.6847)" display="inline">
					<path id="path196" inkscape:connector-curvature="0" fill="#464141" d="M0,0v5.927c0,1.079-0.911,1.949-1.99,1.949
						c-1.117,0-1.988-0.87-1.988-1.949V0h-1.855v7.102c0,0.472-0.38,0.851-0.853,0.851v0.569h2.84V8.105
						c0.531,0.379,1.118,0.624,1.856,0.624c2.443,0,3.959-1.703,3.959-4.354V1.44c0-0.474,0.378-0.852,0.851-0.852V0H0"/>
				</g>
				<g id="g198" transform="translate(517.6292,647.6847)" display="inline">
					<path id="path200" inkscape:connector-curvature="0" fill="#464141" d="M0,0v7.102c0,0.472-0.359,0.851-0.833,0.851v0.569
						h2.821l0-8.522H0"/>
				</g>
				<g id="g202" transform="translate(523.7835,652.0596)" display="inline">
					<path id="path204" inkscape:connector-curvature="0" fill="#464141" d="M0,0v-1.384c0-1.173,0.946-2.139,2.101-2.139h3.75
						v-0.852H2.139c-2.347,0-4.26,1.969-4.26,4.375c0,2.423,1.913,4.354,4.26,4.354c2.33,0,4.262-1.931,4.262-4.354H0z M4.261,1.383
						c0,1.154-0.947,2.118-2.122,2.118C0.946,3.501,0,2.537,0,1.383V0.851h4.261V1.383"/>
				</g>
				<path id="path206" inkscape:connector-curvature="0" display="inline" fill="#464141" d="M519.617,657.373h-1.991v1.991h1.991
					V657.373z"/>
				<g id="g208" transform="translate(522.2842,665.8728)" display="inline">
					<path id="path210" inkscape:connector-curvature="0" fill="#EE2631" d="M0,0l-2.17,2.984
						c-4.889-3.067-11.249-2.852-15.928,0.663l-2.681-3.693C-13.727-5.302-3.81-4.928,2.832,1.062L2.246,1.879
						C1.554,1.202,0.806,0.572,0,0"/>
				</g>
				<g id="g212" transform="translate(528.5259,688.6703)" display="inline">
					<path id="path214" inkscape:connector-curvature="0" fill="#672290" d="M0,0l-0.958-0.304c0.429-0.867,0.799-1.773,1.093-2.717
						l-3.509-1.142c1.407-5.597-0.764-11.579-5.551-14.944l2.683-3.69C0.937-17.715,3.644-8.168,0,0"/>
				</g>
				<g id="g216" transform="translate(508.9075,698.6298)" display="inline">
					<path id="path218" inkscape:connector-curvature="0" fill="#78CA2A" d="M0,0l-0.006-1.004c0.957,0.139,1.932,0.21,2.921,0.199
						l0.002-3.691C8.674-4.885,13.694-8.8,15.414-14.392l4.339,1.411C17.137-4.583,8.896,0.944,0,0"/>
				</g>
				<g id="g220" transform="translate(498.5497,684.4341)" display="inline">
					<path id="path222" inkscape:connector-curvature="0" fill="#FCD205" d="M0,0c2.151,5.356,7.424,8.92,13.275,8.828l-0.002,4.563
						C4.479,13.498-3.324,7.367-5.177-1.384l0.955-0.317c0.161,0.955,0.395,1.904,0.713,2.84L0,0"/>
				</g>
				<g id="g224" transform="translate(503.6727,668.8118)" display="inline">
					<path id="path226" inkscape:connector-curvature="0" fill="#00ADEF" d="M0,0c-4.428,3.702-6.189,9.817-4.293,15.353
						l-4.339,1.408c-2.82-8.329,0.6-17.646,8.35-22.112L0.314-4.54c-0.857,0.448-1.688,0.963-2.481,1.555L0,0"/>
				</g>
			</g>
			<g>
				<g>
					<path fill="#4F4E4F" d="M426.581,656.5h0.501v-2.949h-0.501V656.5z"/>
					<path fill="#4F4E4F" d="M427.916,656.5h0.529l1.307-2.173h0.008v2.173h0.477v-2.949h-0.529l-1.303,2.169h-0.012v-2.169h-0.477
						V656.5z"/>
					<path fill="#4F4E4F" d="M431.401,654.533c0-0.454,0.325-0.632,0.726-0.632c0.441,0,0.606,0.223,0.606,0.446
						c0,0.227-0.12,0.318-0.237,0.363c-0.2,0.078-0.461,0.132-0.854,0.244c-0.489,0.136-0.634,0.442-0.634,0.747
						c0,0.591,0.529,0.868,1.046,0.868c0.597,0,1.099-0.326,1.099-0.942h-0.501c-0.024,0.38-0.273,0.521-0.617,0.521
						c-0.233,0-0.525-0.087-0.525-0.384c0-0.207,0.136-0.322,0.341-0.38c0.044-0.012,0.678-0.182,0.826-0.227
						c0.377-0.116,0.557-0.446,0.557-0.752c0-0.661-0.569-0.925-1.139-0.925c-0.654,0-1.183,0.322-1.195,1.054H431.401z"/>
					<path fill="#4F4E4F" d="M433.638,656.5h2.318v-0.446h-0.91v-2.503h-0.501v2.503h-0.906V656.5z"/>
					<path fill="#4F4E4F" d="M436.53,656.5h0.501v-2.949h-0.501V656.5z"/>
					<path fill="#4F4E4F" d="M437.612,656.5h2.318v-0.446h-0.91v-2.503h-0.501v2.503h-0.906V656.5z"/>
					<path fill="#4F4E4F" d="M440.471,656.5h0.501v-1.719c0-0.396,0.024-0.855,0.674-0.855c0.65,0,0.674,0.458,0.674,0.855v1.719
						h0.501v-1.888c0-0.756-0.469-1.132-1.175-1.132c-0.706,0-1.175,0.376-1.175,1.132V656.5z"/>
					<path fill="#4F4E4F" d="M443.367,656.5h2.318v-0.446h-0.91v-2.503h-0.501v2.503h-0.906V656.5z"/>
					<path fill="#4F4E4F" d="M447.613,656.5h1.187c0.882,0,1.263-0.661,1.263-1.475c0-0.814-0.381-1.475-1.263-1.475h-1.187V656.5z
						 M448.115,653.972h0.493c0.786,0,0.954,0.463,0.954,1.053c0,0.591-0.168,1.054-0.954,1.054h-0.493V653.972z"/>
					<path fill="#4F4E4F" d="M450.749,656.5h2.061v-0.446h-1.56v-0.772h1.443v-0.421h-1.443v-0.863h1.588v-0.446h-2.089V656.5z"/>
					<path fill="#4F4E4F" d="M454.872,656.5h0.501v-2.503h1.455v-0.446h-1.957V656.5z"/>
					<path fill="#4F4E4F" d="M458.18,656.5h0.533l1.103-2.949h-0.537l-0.269,0.781h-1.143l-0.269-0.781h-0.517L458.18,656.5z
						 M458.003,654.723h0.874l-0.429,1.268h-0.012L458.003,654.723z"/>
					<path fill="#4F4E4F" d="M461.685,656.5h1.977v-0.446h-1.476v-0.772h1.295v-0.421h-1.295v-1.309h-0.501V656.5z"/>
					<path fill="#4F4E4F" d="M464.303,656.5h1.367c0.626,0,0.946-0.297,0.946-0.797c0-0.566-0.381-0.71-0.473-0.744v-0.008
						c0.173-0.025,0.425-0.157,0.425-0.624c0-0.343,0.048-0.657,0.156-0.777h-0.537c-0.076,0.128-0.076,0.289-0.076,0.434
						c0,0.541-0.108,0.781-0.569,0.781h-0.738v-1.214h-0.501V656.5z M464.804,655.157h0.822c0.317,0,0.489,0.161,0.489,0.471
						c0,0.376-0.237,0.45-0.497,0.45h-0.814V655.157z"/>
					<path fill="#4F4E4F" d="M468.133,656.5h0.533l1.103-2.949h-0.537l-0.269,0.781h-1.143l-0.269-0.781h-0.517L468.133,656.5z
						 M467.956,654.723h0.874l-0.429,1.268h-0.012L467.956,654.723z"/>
					<path fill="#4F4E4F" d="M470.262,656.5h0.529l1.307-2.173h0.008v2.173h0.477v-2.949h-0.529l-1.303,2.169h-0.012v-2.169h-0.477
						V656.5z"/>
					<path fill="#4F4E4F" d="M475.351,655.562c-0.084,0.339-0.297,0.587-0.714,0.587c-0.614,0-0.87-0.558-0.87-1.124
						c0-0.566,0.257-1.124,0.87-1.124c0.445,0,0.69,0.343,0.73,0.772h0.489c-0.04-0.706-0.525-1.194-1.219-1.194
						c-0.858,0-1.371,0.702-1.371,1.545s0.513,1.545,1.371,1.545c0.646-0.004,1.155-0.372,1.215-1.008H475.351z"/>
					<path fill="#4F4E4F" d="M479.144,655.025c0-0.843-0.513-1.545-1.371-1.545c-0.858,0-1.371,0.702-1.371,1.545
						s0.513,1.545,1.371,1.545C478.631,656.57,479.144,655.868,479.144,655.025z M476.903,655.025c0-0.566,0.257-1.124,0.87-1.124
						c0.613,0,0.87,0.558,0.87,1.124c0,0.566-0.257,1.124-0.87,1.124C477.159,656.149,476.903,655.591,476.903,655.025z"/>
					<path fill="#4F4E4F" d="M479.842,656.5h1.263c0.818,0,0.975-0.545,0.975-0.913c0-0.364-0.157-0.909-0.975-0.905h-0.762v-1.132
						h-0.501V656.5z M480.343,655.103h0.734c0.225,0,0.501,0.116,0.501,0.488c0,0.388-0.229,0.487-0.493,0.487h-0.742V655.103z"/>
					<path fill="#4F4E4F" d="M482.746,656.5h0.501v-1.173h1.303v1.173h0.501v-2.949h-0.501v1.33h-1.303v-1.33h-0.501V656.5z"/>
					<path fill="#4F4E4F" d="M488.484,655.025c0-0.843-0.513-1.545-1.371-1.545c-0.858,0-1.371,0.702-1.371,1.545
						s0.513,1.545,1.371,1.545C487.97,656.57,488.484,655.868,488.484,655.025z M486.242,655.025c0-0.566,0.257-1.124,0.87-1.124
						c0.613,0,0.87,0.558,0.87,1.124c0,0.566-0.257,1.124-0.87,1.124C486.499,656.149,486.242,655.591,486.242,655.025z"/>
					<path fill="#4F4E4F" d="M489.161,656.5h0.529l1.307-2.173h0.008v2.173h0.477v-2.949h-0.529l-1.303,2.169h-0.012v-2.169h-0.477
						V656.5z"/>
					<path fill="#4F4E4F" d="M492.317,656.5h0.501v-2.949h-0.501V656.5z"/>
					<path fill="#4F4E4F" d="M493.673,656.5h2.061v-0.446h-1.56v-0.772h1.443v-0.421h-1.443v-0.863h1.588v-0.446h-2.089V656.5z"/>
					<path fill="#4F4E4F" d="M426.581,651.25h1.263c0.818,0,0.975-0.545,0.975-0.913c0-0.364-0.157-0.909-0.975-0.905h-0.762v-1.132
						h-0.501V651.25z M427.082,649.854h0.734c0.224,0,0.501,0.116,0.501,0.488c0,0.388-0.229,0.487-0.493,0.487h-0.742V649.854z"/>
					<path fill="#4F4E4F" d="M432.098,649.775c0-0.843-0.513-1.545-1.371-1.545c-0.858,0-1.371,0.702-1.371,1.545
						s0.513,1.545,1.371,1.545C431.585,651.32,432.098,650.618,432.098,649.775z M429.857,649.775c0-0.566,0.257-1.124,0.87-1.124
						c0.613,0,0.87,0.558,0.87,1.124c0,0.566-0.257,1.124-0.87,1.124C430.114,650.899,429.857,650.341,429.857,649.775z"/>
					<path fill="#4F4E4F" d="M432.776,651.25h0.501v-1.719c0-0.396,0.024-0.855,0.674-0.855c0.65,0,0.674,0.458,0.674,0.855v1.719
						h0.501v-1.888c0-0.756-0.469-1.132-1.175-1.132c-0.706,0-1.175,0.376-1.175,1.132V651.25z"/>
					<path fill="#4F4E4F" d="M435.956,651.25h1.367c0.626,0,0.946-0.297,0.946-0.797c0-0.566-0.381-0.71-0.473-0.744v-0.008
						c0.173-0.025,0.425-0.157,0.425-0.624c0-0.343,0.048-0.657,0.156-0.777h-0.537c-0.076,0.128-0.076,0.289-0.076,0.434
						c0,0.541-0.108,0.781-0.569,0.781h-0.738v-1.214h-0.501V651.25z M436.458,649.907h0.822c0.317,0,0.489,0.161,0.489,0.471
						c0,0.376-0.237,0.45-0.497,0.45h-0.814V649.907z"/>
					<path fill="#4F4E4F" d="M440.4,651.25h0.501v-2.503h1.455v-0.446H440.4V651.25z"/>
					<path fill="#4F4E4F" d="M442.954,651.25h2.061v-0.446h-1.56v-0.772h1.443v-0.421h-1.443v-0.863h1.588v-0.446h-2.089V651.25z"/>
					<path fill="#4F4E4F" d="M447.1,651.25h1.187c0.882,0,1.263-0.661,1.263-1.475s-0.381-1.475-1.263-1.475H447.1V651.25z
						 M447.601,648.722h0.493c0.786,0,0.954,0.463,0.954,1.053c0,0.591-0.168,1.054-0.954,1.054h-0.493V648.722z"/>
					<path fill="#4F4E4F" d="M450.248,651.25h2.061v-0.446h-1.56v-0.772h1.443v-0.421h-1.443v-0.863h1.588v-0.446h-2.089V651.25z
						 M451.267,652.134h0.541l-0.569-0.591h-0.333L451.267,652.134z"/>
					<path fill="#4F4E4F" d="M452.702,651.25h0.521l0.718-2.334h0.008l0.734,2.334h0.509l-0.978-2.949h-0.557L452.702,651.25z"/>
					<path fill="#4F4E4F" d="M455.73,651.25h2.061v-0.446h-1.56v-0.772h1.443v-0.421h-1.443v-0.863h1.588v-0.446h-2.089V651.25z"/>
					<path fill="#4F4E4F" d="M458.509,651.25h0.501v-2.503h1.455v-0.446h-1.957V651.25z"/>
					<path fill="#4F4E4F" d="M463.653,649.775c0-0.843-0.513-1.545-1.371-1.545c-0.858,0-1.371,0.702-1.371,1.545
						s0.513,1.545,1.371,1.545C463.14,651.32,463.653,650.618,463.653,649.775z M461.412,649.775c0-0.566,0.257-1.124,0.87-1.124
						c0.613,0,0.87,0.558,0.87,1.124c0,0.566-0.257,1.124-0.87,1.124C461.669,650.899,461.412,650.341,461.412,649.775z"/>
					<path fill="#4F4E4F" d="M464.364,651.25h1.263c0.818,0,0.975-0.545,0.975-0.913c0-0.364-0.156-0.909-0.975-0.905h-0.762v-1.132
						h-0.501V651.25z M464.865,649.854h0.734c0.225,0,0.501,0.116,0.501,0.488c0,0.388-0.229,0.487-0.493,0.487h-0.742V649.854z"/>
					<path fill="#4F4E4F" d="M467.291,651.25h1.263c0.818,0,0.975-0.545,0.975-0.913c0-0.364-0.157-0.909-0.975-0.905h-0.762v-1.132
						h-0.501V651.25z M467.792,649.854h0.734c0.225,0,0.501,0.116,0.501,0.488c0,0.388-0.229,0.487-0.493,0.487h-0.742V649.854z"/>
					<path fill="#4F4E4F" d="M470.218,651.25h2.061v-0.446h-1.56v-0.772h1.443v-0.421h-1.443v-0.863h1.588v-0.446h-2.089V651.25z"/>
					<path fill="#4F4E4F" d="M472.989,651.25h0.706l0.79-2.309h0.008l0.77,2.309h0.698v-2.949h-0.477v2.276h-0.008l-0.794-2.276
						h-0.413l-0.794,2.276h-0.008v-2.276h-0.477V651.25z"/>
					<path fill="#4F4E4F" d="M476.815,651.25h2.061v-0.446h-1.56v-0.772h1.443v-0.421h-1.443v-0.863h1.588v-0.446h-2.089V651.25z"/>
					<path fill="#4F4E4F" d="M479.574,651.25h0.529l1.307-2.173h0.008v2.173h0.477v-2.949h-0.529l-1.303,2.169h-0.012v-2.169h-0.477
						V651.25z"/>
					<path fill="#4F4E4F" d="M482.469,651.25h2.318v-0.446h-0.91v-2.503h-0.501v2.503h-0.906V651.25z"/>
					<path fill="#4F4E4F" d="M486.74,651.25h1.187c0.882,0,1.263-0.661,1.263-1.475s-0.381-1.475-1.263-1.475h-1.187V651.25z
						 M487.241,648.722h0.493c0.786,0,0.954,0.463,0.954,1.053c0,0.591-0.168,1.054-0.954,1.054h-0.493V648.722z"/>
					<path fill="#4F4E4F" d="M489.855,651.25h0.501v-1.719c0-0.396,0.024-0.855,0.674-0.855c0.65,0,0.673,0.458,0.673,0.855v1.719
						h0.501v-1.888c0-0.756-0.469-1.132-1.175-1.132c-0.706,0-1.175,0.376-1.175,1.132V651.25z"/>
					<path fill="#4F4E4F" d="M493.035,651.25h1.367c0.626,0,0.946-0.297,0.946-0.797c0-0.566-0.381-0.71-0.473-0.744v-0.008
						c0.173-0.025,0.425-0.157,0.425-0.624c0-0.343,0.048-0.657,0.156-0.777h-0.537c-0.076,0.128-0.076,0.289-0.076,0.434
						c0,0.541-0.108,0.781-0.569,0.781h-0.738v-1.214h-0.501V651.25z M493.537,649.907h0.822c0.317,0,0.489,0.161,0.489,0.471
						c0,0.376-0.237,0.45-0.497,0.45h-0.814V649.907z"/>
					<path fill="#4F4E4F" d="M496.877,651.25h0.533l1.103-2.949h-0.537l-0.269,0.781h-1.143l-0.269-0.781h-0.517L496.877,651.25z
						 M496.7,649.474h0.874l-0.429,1.268h-0.012L496.7,649.474z"/>
					<path fill="#4F4E4F" d="M499.038,651.25h1.391c0.513,0,0.85-0.24,0.85-0.731c0-0.297-0.149-0.512-0.409-0.628v-0.008
						c0.349-0.078,0.537-0.359,0.537-0.76c0-0.463-0.313-0.822-1.055-0.822h-1.315V651.25z M499.54,650.015h0.818
						c0.241,0,0.421,0.145,0.421,0.409c0,0.297-0.148,0.405-0.421,0.405h-0.818V650.015z M499.54,648.722h0.886
						c0.305,0,0.481,0.169,0.481,0.467c0,0.289-0.176,0.454-0.481,0.454h-0.886V648.722z"/>
					<path fill="#4F4E4F" d="M502.114,651.25h0.501v-2.503h1.455v-0.446h-1.957V651.25z"/>
					<path fill="#4F4E4F" d="M504.668,651.25h2.061v-0.446h-1.56v-0.772h1.443v-0.421h-1.443v-0.863h1.588v-0.446h-2.089V651.25z"/>
				</g>
				<g>
					<path fill="none" d="M490.175,676.239c0.022-0.064,0.044-0.128,0.065-0.193C490.219,676.111,490.197,676.175,490.175,676.239z"
						/>
					<path fill="none" d="M490.257,675.991c0.015-0.047,0.029-0.093,0.043-0.14C490.286,675.898,490.272,675.945,490.257,675.991z"
						/>
					<path fill="none" d="M492.237,679.067c-0.014,0.027-0.03,0.054-0.045,0.081C492.207,679.121,492.222,679.094,492.237,679.067z"
						/>
					<path fill="none" d="M490.322,675.779c0.012-0.042,0.024-0.083,0.035-0.125C490.345,675.695,490.334,675.737,490.322,675.779z"
						/>
					<path fill="none" d="M492.419,678.709c-0.01,0.02-0.019,0.041-0.029,0.061C492.4,678.75,492.409,678.729,492.419,678.709z"/>
					<path fill="none" d="M489.866,676.994c0.018-0.038,0.035-0.076,0.052-0.114C489.902,676.918,489.884,676.956,489.866,676.994z"
						/>
					<path fill="none" d="M492.075,679.359c-0.021,0.036-0.043,0.072-0.064,0.109C492.033,679.431,492.054,679.395,492.075,679.359z
						"/>
					<path fill="none" d="M490.105,676.43c0.019-0.051,0.038-0.103,0.057-0.154C490.143,676.327,490.124,676.378,490.105,676.43z"/>
					<path fill="none" d="M489.951,676.806c0.017-0.038,0.033-0.076,0.049-0.115C489.984,676.73,489.968,676.768,489.951,676.806z"
						/>
					<path fill="none" d="M490.03,676.618c0.017-0.041,0.033-0.081,0.049-0.122C490.063,676.537,490.047,676.578,490.03,676.618z"/>
					<path fill="none" d="M490.378,675.575c0.011-0.041,0.021-0.082,0.031-0.123C490.399,675.493,490.388,675.534,490.378,675.575z"
						/>
					<path fill="none" d="M490.473,675.171c0.01-0.049,0.02-0.098,0.029-0.146C490.493,675.074,490.483,675.122,490.473,675.171z"/>
					<path fill="none" d="M490.588,674.483c0.006-0.045,0.011-0.09,0.016-0.135C490.599,674.393,490.594,674.438,490.588,674.483z"
						/>
					<path fill="none" d="M492.848,677.713c-0.017,0.045-0.034,0.09-0.051,0.135C492.814,677.803,492.831,677.758,492.848,677.713z"
						/>
					<path fill="none" d="M490.555,674.723c0.009-0.055,0.017-0.11,0.024-0.166C490.572,674.612,490.563,674.668,490.555,674.723z"
						/>
					<path fill="none" d="M490.613,674.266c0.004-0.043,0.008-0.087,0.012-0.13C490.621,674.18,490.617,674.223,490.613,674.266z"/>
					<path fill="none" d="M492.964,677.39c-0.016,0.047-0.032,0.094-0.049,0.14C492.932,677.483,492.948,677.436,492.964,677.39z"/>
					<path fill="none" d="M490.428,675.373c0.01-0.042,0.02-0.085,0.029-0.128C490.448,675.289,490.438,675.331,490.428,675.373z"/>
					<path fill="none" d="M490.631,674.053c0.003-0.044,0.006-0.088,0.009-0.132C490.637,673.965,490.635,674.009,490.631,674.053z"
						/>
					<path fill="none" d="M490.514,674.968c0.013-0.068,0.024-0.136,0.035-0.205C490.538,674.832,490.526,674.9,490.514,674.968z"/>
					<path fill="none" d="M492.583,678.357c-0.016,0.037-0.032,0.074-0.049,0.111C492.551,678.431,492.567,678.394,492.583,678.357z
						"/>
					<path fill="none" d="M492.722,678.034c-0.017,0.042-0.034,0.084-0.052,0.126C492.688,678.118,492.704,678.076,492.722,678.034z
						"/>
					<path fill="none" d="M490.253,681.719c-0.033,0.032-0.065,0.065-0.099,0.096C490.188,681.783,490.22,681.751,490.253,681.719z"
						/>
					<path fill="none" d="M488.869,682.858c-0.037,0.025-0.075,0.05-0.112,0.075C488.794,682.908,488.832,682.884,488.869,682.858z"
						/>
					<path fill="none" d="M489.14,682.665c-0.032,0.023-0.064,0.046-0.096,0.069C489.076,682.711,489.109,682.689,489.14,682.665z"
						/>
					<path fill="none" d="M490.935,680.987c-0.032,0.037-0.064,0.075-0.096,0.112C490.871,681.062,490.903,681.024,490.935,680.987z
						"/>
					<path fill="none" d="M488.719,678.814c0.03-0.037,0.06-0.074,0.09-0.112C488.779,678.74,488.749,678.777,488.719,678.814z"/>
					<path fill="none" d="M488.843,678.659c0.041-0.052,0.081-0.104,0.121-0.157C488.925,678.555,488.884,678.607,488.843,678.659z"
						/>
					<path fill="none" d="M491.145,680.731c-0.031,0.039-0.062,0.077-0.093,0.115C491.084,680.808,491.115,680.769,491.145,680.731z
						"/>
					<path fill="none" d="M491.906,679.645c-0.024,0.039-0.049,0.078-0.073,0.116C491.857,679.723,491.882,679.684,491.906,679.645z
						"/>
					<path fill="none" d="M490.005,681.953c-0.031,0.029-0.062,0.058-0.094,0.086C489.943,682.011,489.974,681.982,490.005,681.953z
						"/>
					<path fill="none" d="M490.645,673.84c0.002-0.048,0.004-0.096,0.006-0.144C490.649,673.744,490.647,673.792,490.645,673.84z"/>
					<path fill="none" d="M489.405,682.465c-0.015,0.012-0.031,0.023-0.046,0.035C489.374,682.488,489.39,682.477,489.405,682.465z"
						/>
					<path fill="none" d="M489.735,682.192c-0.025,0.021-0.049,0.043-0.074,0.064C489.687,682.235,489.711,682.213,489.735,682.192z
						"/>
					<path fill="none" d="M490.716,681.237c-0.033,0.036-0.065,0.072-0.098,0.108C490.651,681.309,490.684,681.273,490.716,681.237z
						"/>
					<path fill="none" d="M489.455,677.771c0.023-0.039,0.046-0.078,0.068-0.117C489.501,677.693,489.478,677.732,489.455,677.771z"
						/>
					<path fill="none" d="M491.728,679.925c-0.026,0.04-0.053,0.079-0.079,0.119C491.675,680.005,491.702,679.965,491.728,679.925z"
						/>
					<path fill="none" d="M489.556,677.598c0.033-0.058,0.065-0.116,0.097-0.175C489.621,677.481,489.589,677.54,489.556,677.598z"
						/>
					<path fill="none" d="M489.774,677.186c0.02-0.041,0.04-0.081,0.06-0.122C489.814,677.105,489.794,677.145,489.774,677.186z"/>
					<path fill="none" d="M489.655,677.419c0.031-0.058,0.061-0.116,0.091-0.174C489.716,677.303,489.685,677.361,489.655,677.419z"
						/>
					<path fill="none" d="M489.122,678.283c0.025-0.035,0.049-0.07,0.073-0.106C489.172,678.213,489.147,678.248,489.122,678.283z"
						/>
					<path fill="none" d="M488.989,678.469c0.031-0.042,0.062-0.085,0.093-0.127C489.051,678.384,489.02,678.426,488.989,678.469z"
						/>
					<path fill="none" d="M491.347,680.468c-0.029,0.039-0.059,0.078-0.089,0.117C491.288,680.547,491.318,680.508,491.347,680.468z
						"/>
					<path fill="none" d="M489.349,677.942c0.022-0.035,0.044-0.071,0.066-0.106C489.393,677.872,489.372,677.907,489.349,677.942z"
						/>
					<path fill="none" d="M489.239,678.112c0.023-0.034,0.045-0.068,0.067-0.103C489.284,678.044,489.262,678.078,489.239,678.112z"
						/>
					<path fill="none" d="M491.542,680.2c-0.028,0.04-0.056,0.079-0.085,0.119C491.485,680.279,491.514,680.24,491.542,680.2z"/>
					<path fill="none" d="M490.39,681.584c0.034-0.034,0.066-0.068,0.099-0.103C490.456,681.515,490.423,681.55,490.39,681.584z"/>
					<path fill="none" d="M487.981,679.6c-1.481,1.389-3.461,2.239-5.632,2.239c-1.4,0-2.762-0.342-3.956-0.958
						c-0.765-1.019-1.191-2.354-1.191-3.797v-7.348c0-1.795,0.638-3.381,1.758-4.418c0.979-0.412,2.094-0.637,3.364-0.611
						c0.011,0,0.022,0,0.032,0c2.513,0,4.808,1.244,6.344,3.165v9.211C488.701,677.981,488.435,678.836,487.981,679.6z"/>
					<path fill="none" d="M488.671,678.871c-0.018,0.021-0.035,0.043-0.053,0.064c-0.008,0.009-0.016,0.018-0.023,0.026
						C488.62,678.931,488.646,678.901,488.671,678.871z"/>
					<path fill="none" d="M493.333,676.065c-0.011,0.05-0.022,0.099-0.034,0.149C493.311,676.164,493.323,676.115,493.333,676.065z"
						/>
					<path fill="none" d="M493.552,674.685c-0.004,0.038-0.009,0.077-0.013,0.115C493.543,674.761,493.548,674.723,493.552,674.685z
						"/>
					<path fill="none" d="M493.402,675.725c-0.009,0.049-0.019,0.099-0.029,0.148C493.383,675.823,493.393,675.774,493.402,675.725z
						"/>
					<path fill="none" d="M493.512,675.034c-0.006,0.046-0.013,0.091-0.019,0.137C493.499,675.126,493.506,675.08,493.512,675.034z"
						/>
					<path fill="none" d="M493.462,675.381c-0.008,0.048-0.016,0.096-0.024,0.145C493.446,675.478,493.454,675.43,493.462,675.381z"
						/>
					<path fill="none" d="M454.103,669.736c0-1.218,0.443-2.339,1.163-3.259c1.346-1.092,3.034-1.774,5.147-1.729
						c0.011,0,0.022,0,0.032,0c2.014,0,3.887,0.813,5.34,2.139v10.195c0,1.499-0.574,2.882-1.515,3.915
						c-1.068,0.535-2.315,0.865-3.769,0.865c-1.628-0.003-3.776-0.662-5.437-1.804c-0.599-0.873-0.96-1.895-0.96-2.977V669.736z"/>
					<path fill="none" d="M493.167,676.734c-0.014,0.049-0.028,0.098-0.042,0.147C493.14,676.832,493.154,676.783,493.167,676.734z"
						/>
					<path fill="none" d="M488.295,679.289c0.02-0.021,0.04-0.043,0.061-0.064C488.336,679.246,488.316,679.268,488.295,679.289z"/>
					<path fill="none" d="M488.447,679.127c0.021-0.023,0.041-0.046,0.062-0.069C488.488,679.081,488.468,679.104,488.447,679.127z"
						/>
					<path fill="none" d="M493.07,677.063c-0.015,0.048-0.03,0.096-0.046,0.144C493.04,677.16,493.055,677.112,493.07,677.063z"/>
					<path fill="none" d="M490.653,673.626c0.002-0.071,0.003-0.143,0.003-0.214C490.656,673.484,490.655,673.555,490.653,673.626z"
						/>
					<path fill="none" d="M488.14,679.446c0.018-0.017,0.035-0.035,0.052-0.053C488.175,679.411,488.158,679.429,488.14,679.446z"/>
					<path fill="none" d="M493.255,676.401c-0.012,0.05-0.025,0.099-0.038,0.149C493.23,676.5,493.243,676.451,493.255,676.401z"/>
					<path fill="#8BC540" d="M437.842,685.001c-0.512-0.044-1.047-0.129-1.594-0.254h1.594V685.001z"/>
					<path fill="#4F4E4F" d="M450.936,674.129c0.721-2.706,2.025-5.782,4.33-7.652c-0.72,0.919-1.163,2.041-1.163,3.259v7.348
						c0,1.082,0.361,2.104,0.96,2.977c-0.757-0.52-1.413-1.14-1.872-1.844c0,0-0.389-0.597-0.546-0.835l-1.881,1.166
						c-0.29-0.62-0.528-1.275-0.708-1.96C450.404,675.78,450.703,674.947,450.936,674.129
						C450.906,674.241,450.956,674.06,450.936,674.129z"/>
					<path fill="#4F4E4F" d="M469.937,673.326c-0.448,1.553-1.985,5.83-5.668,7.674c0.942-1.033,1.515-2.416,1.515-3.915v-10.195
						c0.231,0.211,0.452,0.435,0.661,0.671c0.102,0.12,0.201,0.244,0.297,0.37l0.415,0.547c0.316,0.466,0.591,0.965,0.818,1.489
						l2.618-1.399c-0.189-0.413-0.401-0.815-0.636-1.205l-0.253-0.4c-0.385-0.585-0.823-1.139-1.313-1.656
						c-0.156-0.164-0.315-0.322-0.478-0.476c-1.867-1.8-4.263-2.875-6.834-3.047h11.431c0.148,0,0.268,0.12,0.268,0.268v1.038
						c0,0.137-0.103,0.252-0.239,0.266c-1.12,0.115-1.943,1.045-1.943,2.486v5.308c-0.299,0.844-0.486,1.536-0.599,1.953
						C469.974,673.194,469.954,673.269,469.937,673.326z"/>
					<path fill="#4F4E4F" d="M495.52,663.36c-1.119,0.129-1.937,1.034-1.937,2.199v6.966c-0.204-2.72-1.342-5.272-3.257-7.266
						c-2.142-2.23-4.966-3.46-7.953-3.465c-0.087-0.002-0.173-0.003-0.259-0.003c-0.154,0-0.307,0.004-0.459,0.01
						c0.199-0.011,0.401-0.017,0.605-0.017h13.226c0.171,0,0.31,0.139,0.31,0.31v0.959
						C495.797,663.211,495.678,663.342,495.52,663.36z"/>
					<path fill="#4F4E4F" d="M472.86,673.851c0.892-3.303,2.651-7.081,6.101-8.534c-1.12,1.038-1.758,2.623-1.758,4.418v7.348
						c0,1.442,0.426,2.777,1.191,3.797c-1.186-0.612-2.206-1.494-2.933-2.582l-0.813-1.217l-1.454,0.941
						c-0.334-0.947-0.561-1.968-0.673-3.044c0.095-0.285,0.184-0.572,0.266-0.857C472.805,674.052,472.83,673.961,472.86,673.851z"
						/>
					<path fill="#8CD6F3" d="M464.27,680.999c-1.018,1.117-2.467,1.826-4.091,1.826c-2.009,0-3.986-1.119-5.115-2.764
						c1.661,1.142,3.809,1.801,5.437,1.804C461.954,681.865,463.202,681.534,464.27,680.999z"/>
					<path fill="#906BAD" d="M487.981,679.6c-1.126,1.894-3.41,3.226-5.67,3.226c-1.678,0-3.028-0.759-3.918-1.945
						c1.194,0.616,2.556,0.958,3.956,0.958C484.52,681.838,486.5,680.988,487.981,679.6z"/>
					<path fill="#F38385" d="M482.357,664.708c-0.011,0-0.022,0-0.032,0c-1.27-0.027-2.385,0.198-3.364,0.611
						c0.858-0.795,1.998-1.269,3.351-1.269h6.08c0.171,0,0.31,0.139,0.31,0.31v3.514
						C487.165,665.952,484.87,664.708,482.357,664.708z"/>
					<g>
						<path fill="#00AEEF" d="M472.439,673.41c0,0.534,0.028,1.057,0.081,1.568c-0.476,1.436-1.105,2.85-1.872,4.074c0,0,0,0,0,0
							c-0.017,0.027-0.033,0.056-0.051,0.083c-0.167,0.263-0.34,0.517-0.52,0.76c-1.208,1.628-2.667,2.85-4.304,3.664l0,0
							c-0.21,0.104-0.423,0.203-0.638,0.294c-1.449,0.612-3.024,0.919-4.678,0.919c-0.338-0.001-0.692-0.022-1.055-0.062
							c-0.774-0.075-1.52-0.23-2.233-0.458c-2.48-0.739-5.026-2.252-6.469-4.46c0,0-0.291-0.438-0.56-0.857l0.624-0.387l1.881-1.166
							c0.157,0.239,0.546,0.835,0.546,0.835c0.46,0.704,1.116,1.324,1.872,1.844c1.129,1.646,3.106,2.764,5.115,2.764
							c1.624,0,3.073-0.709,4.091-1.826c3.683-1.844,5.22-6.121,5.668-7.674c0.016-0.057,0.036-0.132,0.061-0.222
							c0.113-0.417,0.3-1.109,0.599-1.953c0.449-1.268,1.151-2.877,2.232-4.407c2.2-3.112,5.24-4.809,8.827-4.942
							C475.79,662.129,472.439,667.228,472.439,673.41z"/>
						<path fill="#4F4E4F" d="M470.651,695.484c0,0.171-0.154,0.31-0.325,0.31h-6.576c-0.171,0-0.31-0.139-0.31-0.31l0.016-1.033
							c0-0.158,0.119-0.289,0.275-0.307c0.004,0,0.007-0.001,0.011-0.002c0.024-0.01,0.049-0.018,0.076-0.021
							c0.063-0.007,0.124-0.017,0.185-0.029c0.998-0.243,1.77-1.128,1.77-2.197l-0.001-8.336c1.637-0.814,3.096-2.036,4.304-3.664
							c0.18-0.243,0.353-0.497,0.52-0.76c0.017-0.027,0.034-0.056,0.051-0.083L470.651,695.484z"/>
					</g>
					<path fill="#702F8E" d="M493.3,676.214c-0.014,0.063-0.029,0.125-0.045,0.187C493.271,676.339,493.285,676.276,493.3,676.214z"
						/>
					<path fill="#702F8E" d="M490.839,681.099c-0.041,0.047-0.082,0.092-0.123,0.138
						C490.758,681.191,490.799,681.145,490.839,681.099z"/>
					<path fill="#702F8E" d="M492.797,677.847c-0.024,0.063-0.05,0.125-0.075,0.186C492.747,677.972,492.772,677.91,492.797,677.847
						z"/>
					<path fill="#702F8E" d="M492.39,678.77c-0.05,0.1-0.101,0.199-0.153,0.297C492.289,678.969,492.34,678.87,492.39,678.77z"/>
					<path fill="#702F8E" d="M493.583,674.332c-0.009,0.118-0.019,0.236-0.031,0.353
						C493.564,674.568,493.574,674.45,493.583,674.332z"/>
					<path fill="#702F8E" d="M490.618,681.345c-0.042,0.046-0.086,0.091-0.129,0.136
						C490.533,681.436,490.576,681.39,490.618,681.345z"/>
					<path fill="#702F8E" d="M493.025,677.208c-0.02,0.061-0.04,0.121-0.061,0.182C492.985,677.329,493.005,677.269,493.025,677.208
						z"/>
					<path fill="#702F8E" d="M492.534,678.468c-0.037,0.081-0.076,0.161-0.115,0.241
						C492.458,678.629,492.497,678.549,492.534,678.468z"/>
					<path fill="#702F8E" d="M493.217,676.55c-0.016,0.062-0.033,0.123-0.05,0.184C493.184,676.673,493.201,676.611,493.217,676.55z
						"/>
					<path fill="#702F8E" d="M492.67,678.16c-0.028,0.066-0.057,0.131-0.087,0.197C492.612,678.291,492.642,678.226,492.67,678.16z"
						/>
					<path fill="#702F8E" d="M491.052,680.846c-0.039,0.047-0.078,0.094-0.117,0.141
						C490.974,680.94,491.014,680.893,491.052,680.846z"/>
					<path fill="#702F8E" d="M490.154,681.815c-0.049,0.047-0.099,0.093-0.149,0.138
						C490.055,681.908,490.105,681.862,490.154,681.815z"/>
					<path fill="#702F8E" d="M491.832,679.761c-0.035,0.055-0.069,0.11-0.105,0.164
						C491.763,679.871,491.798,679.816,491.832,679.761z"/>
					<path fill="#702F8E" d="M491.457,680.318c-0.036,0.05-0.073,0.1-0.11,0.15C491.384,680.419,491.421,680.369,491.457,680.318z"
						/>
					<path fill="#702F8E" d="M492.915,677.53c-0.022,0.061-0.045,0.122-0.067,0.183C492.871,677.652,492.893,677.591,492.915,677.53
						z"/>
					<path fill="#702F8E" d="M493.125,676.881c-0.018,0.061-0.036,0.122-0.055,0.182
						C493.089,677.003,493.108,676.942,493.125,676.881z"/>
					<path fill="#702F8E" d="M493.539,674.799c-0.009,0.078-0.017,0.157-0.027,0.235
						C493.522,674.956,493.531,674.878,493.539,674.799z"/>
					<path fill="#702F8E" d="M493.437,675.526c-0.011,0.066-0.023,0.133-0.035,0.199
						C493.415,675.659,493.426,675.592,493.437,675.526z"/>
					<path fill="#702F8E" d="M491.648,680.044c-0.035,0.052-0.07,0.104-0.107,0.156
						C491.578,680.148,491.613,680.096,491.648,680.044z"/>
					<path fill="#702F8E" d="M493.373,675.872c-0.013,0.064-0.026,0.128-0.04,0.192C493.347,676.001,493.36,675.937,493.373,675.872
						z"/>
					<path fill="#702F8E" d="M493.493,675.171c-0.01,0.07-0.02,0.14-0.031,0.21C493.473,675.311,493.483,675.241,493.493,675.171z"
						/>
					<path fill="#702F8E" d="M492.011,679.468c-0.035,0.059-0.07,0.119-0.106,0.177
						C491.942,679.586,491.976,679.527,492.011,679.468z"/>
					<path fill="#702F8E" d="M492.192,679.148c-0.038,0.071-0.077,0.141-0.117,0.211
						C492.115,679.289,492.154,679.219,492.192,679.148z"/>
					<path fill="#702F8E" d="M491.258,680.586c-0.037,0.049-0.075,0.097-0.113,0.145
						C491.183,680.683,491.221,680.634,491.258,680.586z"/>
					<path fill="#702F8E" d="M490.253,681.719c0.046-0.045,0.092-0.09,0.137-0.135C490.345,681.629,490.299,681.674,490.253,681.719
						z"/>
					<path fill="#702F8E" d="M489.044,682.734c-0.058,0.042-0.116,0.083-0.175,0.124
						C488.928,682.818,488.986,682.776,489.044,682.734z"/>
					<path fill="#702F8E" d="M489.912,682.039c-0.058,0.052-0.117,0.102-0.176,0.153
						C489.795,682.142,489.854,682.091,489.912,682.039z"/>
					<path fill="#702F8E" d="M489.662,682.256c-0.085,0.071-0.17,0.141-0.257,0.209
						C489.492,682.396,489.577,682.327,489.662,682.256z"/>
					<path fill="#702F8E" d="M489.359,682.5c-0.072,0.056-0.145,0.112-0.218,0.166C489.214,682.611,489.287,682.556,489.359,682.5z"
						/>
					<path fill="#702F8E" d="M490.409,675.452c0.006-0.026,0.013-0.053,0.019-0.079C490.422,675.4,490.415,675.426,490.409,675.452z
						"/>
					<path fill="#702F8E" d="M490.357,675.654c0.007-0.026,0.014-0.052,0.021-0.078
						C490.371,675.601,490.364,675.628,490.357,675.654z"/>
					<path fill="#702F8E" d="M490.502,675.025c0.004-0.019,0.008-0.038,0.011-0.057C490.51,674.987,490.506,675.006,490.502,675.025
						z"/>
					<path fill="#702F8E" d="M490.3,675.851c0.007-0.024,0.014-0.048,0.021-0.073C490.315,675.803,490.308,675.827,490.3,675.851z"
						/>
					<path fill="#702F8E" d="M490.161,676.275c0.004-0.012,0.009-0.024,0.013-0.036C490.17,676.251,490.166,676.263,490.161,676.275
						z"/>
					<path fill="#702F8E" d="M490.24,676.046c0.006-0.018,0.012-0.037,0.017-0.055C490.251,676.01,490.246,676.028,490.24,676.046z"
						/>
					<path fill="#702F8E" d="M490.549,674.763c0.002-0.013,0.004-0.027,0.006-0.04C490.553,674.736,490.551,674.75,490.549,674.763z
						"/>
					<path fill="#702F8E" d="M490.65,673.696c0.001-0.023,0.002-0.046,0.002-0.07C490.652,673.649,490.651,673.673,490.65,673.696z"
						/>
					<path fill="#702F8E" d="M490.64,673.921c0.002-0.027,0.003-0.054,0.005-0.081C490.643,673.867,490.642,673.894,490.64,673.921z
						"/>
					<path fill="#702F8E" d="M490.579,674.557c0.003-0.024,0.006-0.049,0.009-0.073
						C490.585,674.508,490.582,674.532,490.579,674.557z"/>
					<path fill="#702F8E" d="M490.625,674.136c0.002-0.028,0.005-0.056,0.007-0.084
						C490.629,674.081,490.627,674.109,490.625,674.136z"/>
					<path fill="#702F8E" d="M490.604,674.348c0.003-0.027,0.006-0.054,0.008-0.082C490.61,674.294,490.607,674.321,490.604,674.348
						z"/>
					<path fill="#702F8E" d="M490.457,675.246c0.005-0.025,0.011-0.05,0.016-0.075C490.468,675.196,490.462,675.221,490.457,675.246
						z"/>
					<path fill="#702F8E" d="M489.415,677.836c0.013-0.022,0.027-0.043,0.04-0.065C489.442,677.793,489.428,677.814,489.415,677.836
						z"/>
					<path fill="#702F8E" d="M489.307,678.009c0.014-0.022,0.029-0.045,0.043-0.067
						C489.335,677.965,489.321,677.987,489.307,678.009z"/>
					<path fill="#702F8E" d="M489.082,678.341c0.014-0.019,0.027-0.039,0.041-0.058
						C489.109,678.302,489.095,678.322,489.082,678.341z"/>
					<path fill="#702F8E" d="M489.196,678.177c0.015-0.022,0.029-0.043,0.044-0.065C489.225,678.134,489.21,678.155,489.196,678.177
						z"/>
					<path fill="#702F8E" d="M488.671,678.871c0.016-0.019,0.032-0.038,0.048-0.057
						C488.703,678.833,488.687,678.852,488.671,678.871z"/>
					<path fill="#702F8E" d="M488.809,678.702c0.011-0.014,0.023-0.029,0.035-0.043C488.832,678.674,488.82,678.688,488.809,678.702
						z"/>
					<path fill="#702F8E" d="M488.964,678.502c0.008-0.011,0.016-0.022,0.024-0.033C488.981,678.48,488.973,678.491,488.964,678.502
						z"/>
					<path fill="#702F8E" d="M490,676.691c0.01-0.024,0.02-0.049,0.03-0.073C490.02,676.643,490.01,676.667,490,676.691z"/>
					<path fill="#702F8E" d="M489.834,677.064c0.011-0.023,0.022-0.047,0.033-0.07C489.856,677.017,489.845,677.04,489.834,677.064z
						"/>
					<path fill="#702F8E" d="M489.919,676.88c0.011-0.024,0.022-0.049,0.032-0.073C489.94,676.831,489.93,676.855,489.919,676.88z"
						/>
					<path fill="#702F8E" d="M490.079,676.496c0.009-0.022,0.017-0.044,0.026-0.066
						C490.096,676.452,490.087,676.474,490.079,676.496z"/>
					<path fill="#702F8E" d="M489.745,677.245c0.01-0.019,0.019-0.039,0.029-0.059C489.764,677.205,489.755,677.225,489.745,677.245
						z"/>
					<path fill="#702F8E" d="M489.523,677.654c0.011-0.019,0.022-0.038,0.033-0.056
						C489.545,677.617,489.534,677.635,489.523,677.654z"/>
					<path fill="#702F8E" d="M489.653,677.423c0.001-0.001,0.001-0.003,0.002-0.004C489.654,677.42,489.653,677.421,489.653,677.423
						z"/>
					<g>
						<path fill="none" d="M490.551,674.752c-0.001,0.004-0.001,0.008-0.002,0.012c-0.003,0.02-0.007,0.04-0.01,0.06
							c0.003-0.02,0.007-0.04,0.01-0.06C490.549,674.759,490.55,674.755,490.551,674.752z"/>
						<path fill="none" d="M489.43,677.811c-0.005,0.008-0.01,0.017-0.015,0.025c-0.008,0.014-0.017,0.027-0.025,0.041
							c0.008-0.014,0.017-0.027,0.025-0.041C489.42,677.828,489.425,677.819,489.43,677.811z"/>
						<path fill="none" d="M489.082,678.341c-0.031,0.043-0.062,0.085-0.093,0.128c-0.008,0.011-0.016,0.022-0.024,0.033
							c0.008-0.011,0.016-0.022,0.024-0.033C489.02,678.426,489.051,678.384,489.082,678.341z"/>
						<path fill="none" d="M489.556,677.598c-0.011,0.019-0.022,0.038-0.033,0.056c-0.005,0.009-0.011,0.018-0.016,0.028
							c0.005-0.009,0.011-0.018,0.016-0.028C489.534,677.635,489.545,677.617,489.556,677.598z"/>
						<path fill="none" d="M489.239,678.112c0.023-0.034,0.045-0.068,0.067-0.103c0.005-0.008,0.01-0.016,0.016-0.024
							c-0.005,0.008-0.01,0.016-0.016,0.024C489.284,678.044,489.262,678.078,489.239,678.112c-0.014,0.022-0.029,0.043-0.043,0.065
							c-0.018,0.027-0.037,0.053-0.055,0.08c0.018-0.026,0.037-0.053,0.055-0.08C489.21,678.155,489.225,678.134,489.239,678.112z"
							/>
						<path fill="none" d="M490.445,675.298c-0.006,0.025-0.011,0.05-0.017,0.075c-0.004,0.015-0.007,0.029-0.011,0.044
							c0.004-0.015,0.007-0.029,0.011-0.044C490.434,675.348,490.439,675.323,490.445,675.298z"/>
						<path fill="none" d="M489.721,677.291c-0.022,0.043-0.044,0.086-0.066,0.128c0,0.001-0.001,0.001-0.001,0.002
							c0-0.001,0.001-0.001,0.001-0.002C489.677,677.376,489.699,677.334,489.721,677.291z"/>
						<path fill="none" d="M490.152,676.301c-0.015,0.043-0.031,0.086-0.047,0.129c-0.005,0.012-0.01,0.025-0.014,0.037
							c0.005-0.012,0.01-0.025,0.014-0.037C490.121,676.387,490.136,676.344,490.152,676.301z"/>
						<path fill="none" d="M489.857,677.014c-0.008,0.017-0.016,0.033-0.023,0.05c-0.008,0.017-0.017,0.034-0.025,0.051
							c0.008-0.017,0.017-0.034,0.025-0.051C489.842,677.047,489.849,677.03,489.857,677.014z"/>
						<path fill="none" d="M490.509,674.989c-0.002,0.012-0.005,0.024-0.007,0.035c-0.008,0.044-0.017,0.087-0.026,0.13
							c0.009-0.043,0.018-0.087,0.026-0.13C490.505,675.013,490.507,675.001,490.509,674.989z"/>
						<path fill="none" d="M490.613,674.266c0.004-0.043,0.008-0.087,0.012-0.13c0.002-0.028,0.005-0.056,0.007-0.084
							c0.003-0.038,0.005-0.075,0.007-0.113c-0.002,0.038-0.005,0.076-0.007,0.113c-0.002,0.028-0.004,0.056-0.007,0.084
							C490.621,674.18,490.617,674.223,490.613,674.266c-0.003,0.027-0.005,0.054-0.008,0.082c-0.003,0.023-0.006,0.047-0.008,0.07
							c0.003-0.023,0.006-0.046,0.008-0.07C490.607,674.321,490.61,674.294,490.613,674.266z"/>
						<path fill="none" d="M490.65,673.696c-0.002,0.048-0.003,0.096-0.006,0.144c-0.001,0.02-0.002,0.041-0.003,0.061
							c0.001-0.02,0.002-0.04,0.003-0.061C490.647,673.792,490.649,673.744,490.65,673.696z"/>
						<path fill="none" d="M490.585,674.511c-0.002,0.015-0.004,0.031-0.006,0.046c-0.003,0.021-0.006,0.043-0.009,0.064
							c0.003-0.021,0.006-0.043,0.009-0.064C490.581,674.541,490.583,674.526,490.585,674.511z"/>
						<path fill="none" d="M488.82,678.688c-0.004,0.005-0.008,0.01-0.012,0.014c0,0,0,0,0,0c0,0,0,0,0,0
							C488.813,678.697,488.816,678.693,488.82,678.688z"/>
						<path fill="#4F4E4F" d="M490.653,673.626c-0.001,0.023-0.002,0.046-0.002,0.07c-0.002,0.048-0.003,0.096-0.006,0.144
							c-0.001,0.02-0.002,0.041-0.003,0.061c0,0.007-0.001,0.014-0.001,0.02c0,0.006-0.001,0.012-0.001,0.019
							c-0.002,0.038-0.005,0.076-0.007,0.113c-0.002,0.028-0.004,0.056-0.007,0.084c-0.004,0.043-0.008,0.087-0.012,0.13
							c-0.003,0.027-0.005,0.054-0.008,0.082c-0.003,0.023-0.005,0.047-0.008,0.07c-0.003,0.022-0.005,0.044-0.008,0.066
							c-0.001,0.009-0.002,0.018-0.003,0.028c-0.002,0.015-0.004,0.031-0.006,0.046c-0.003,0.021-0.006,0.043-0.009,0.064
							c-0.005,0.034-0.01,0.068-0.015,0.102c-0.001,0.01-0.003,0.019-0.004,0.029c-0.001,0.004-0.001,0.008-0.002,0.012
							c-0.003,0.02-0.007,0.04-0.01,0.06c-0.008,0.048-0.016,0.097-0.025,0.145c-0.001,0.007-0.003,0.014-0.004,0.021
							c-0.002,0.012-0.005,0.024-0.007,0.035c-0.008,0.044-0.017,0.087-0.026,0.13c-0.001,0.005-0.002,0.011-0.003,0.016
							c-0.005,0.025-0.011,0.05-0.016,0.075c-0.004,0.017-0.008,0.035-0.012,0.052c-0.006,0.025-0.011,0.05-0.017,0.075
							c-0.003,0.015-0.007,0.029-0.011,0.044c-0.003,0.012-0.006,0.023-0.009,0.035c-0.01,0.041-0.021,0.082-0.031,0.123
							c-0.007,0.026-0.014,0.052-0.021,0.078c-0.011,0.042-0.023,0.083-0.035,0.125c-0.007,0.024-0.014,0.049-0.021,0.073
							c-0.014,0.047-0.029,0.093-0.043,0.14c-0.006,0.018-0.011,0.037-0.017,0.055c-0.021,0.065-0.043,0.129-0.065,0.193
							c-0.004,0.012-0.009,0.024-0.013,0.036c-0.003,0.009-0.006,0.017-0.009,0.026c-0.016,0.043-0.031,0.086-0.047,0.129
							c-0.005,0.012-0.01,0.025-0.014,0.037c-0.004,0.01-0.008,0.02-0.012,0.03c-0.016,0.041-0.032,0.082-0.049,0.122
							c-0.01,0.024-0.02,0.049-0.03,0.073c-0.016,0.038-0.032,0.077-0.049,0.115c-0.011,0.024-0.021,0.049-0.032,0.073
							c-0.017,0.038-0.034,0.076-0.052,0.114c-0.003,0.007-0.006,0.013-0.009,0.02c-0.008,0.017-0.015,0.033-0.023,0.05
							c-0.008,0.017-0.017,0.034-0.025,0.051c-0.012,0.024-0.023,0.048-0.035,0.071c-0.01,0.02-0.019,0.039-0.029,0.059
							c-0.008,0.016-0.016,0.031-0.024,0.046c-0.022,0.043-0.044,0.086-0.066,0.128c0,0.001-0.001,0.001-0.001,0.002
							c0,0.001-0.001,0.001-0.001,0.002c-0.031,0.059-0.064,0.117-0.097,0.175c-0.011,0.019-0.022,0.038-0.033,0.056
							c-0.005,0.009-0.011,0.018-0.016,0.028c-0.017,0.03-0.035,0.06-0.052,0.089c-0.008,0.013-0.016,0.027-0.024,0.04
							c-0.005,0.008-0.01,0.017-0.015,0.025c-0.008,0.014-0.017,0.027-0.025,0.041c-0.013,0.022-0.027,0.044-0.04,0.065
							c-0.009,0.014-0.018,0.028-0.027,0.043c-0.005,0.008-0.01,0.016-0.016,0.024c-0.022,0.034-0.045,0.069-0.067,0.103
							c-0.014,0.022-0.029,0.043-0.044,0.065c-0.018,0.027-0.037,0.053-0.055,0.08c-0.006,0.009-0.012,0.018-0.018,0.026
							c-0.014,0.019-0.027,0.039-0.041,0.058c-0.031,0.043-0.062,0.085-0.093,0.128c-0.008,0.011-0.016,0.022-0.024,0.033
							c-0.04,0.053-0.08,0.105-0.121,0.157c-0.008,0.01-0.015,0.019-0.023,0.029c-0.004,0.005-0.008,0.01-0.012,0.014c0,0,0,0,0,0
							c-0.03,0.037-0.06,0.075-0.09,0.111c-0.006,0.007-0.011,0.013-0.017,0.02c-0.01,0.012-0.021,0.024-0.031,0.037
							c-0.006,0.007-0.012,0.014-0.018,0.022v0c-0.012,0.014-0.023,0.028-0.035,0.042c-0.008,0.009-0.016,0.018-0.023,0.026
							c-0.028,0.033-0.057,0.065-0.085,0.097c-0.021,0.023-0.041,0.046-0.062,0.069c-0.03,0.033-0.06,0.065-0.091,0.098
							c-0.02,0.021-0.04,0.043-0.06,0.064c-0.034,0.035-0.069,0.07-0.103,0.105c-0.017,0.018-0.034,0.035-0.052,0.053
							c-0.052,0.052-0.105,0.103-0.159,0.153c0,0,0,0,0,0c0.454-0.764,0.72-1.619,0.72-2.516v-9.211
							c1.214,1.517,1.954,3.457,1.954,5.539C490.656,673.484,490.655,673.555,490.653,673.626z"/>
						<path fill="#EE3433" d="M490.57,674.621c-0.005,0.034-0.01,0.068-0.015,0.102c-0.001,0.01-0.003,0.019-0.004,0.029
							c0.001-0.01,0.003-0.019,0.004-0.029C490.56,674.689,490.565,674.655,490.57,674.621z"/>
						<path fill="#EE3433" d="M490.473,675.171c0.001-0.005,0.002-0.011,0.003-0.016
							C490.475,675.16,490.474,675.166,490.473,675.171c-0.005,0.025-0.011,0.05-0.016,0.075c-0.004,0.017-0.008,0.035-0.012,0.052
							c0.004-0.017,0.008-0.035,0.012-0.052C490.462,675.221,490.468,675.196,490.473,675.171z"/>
						<path fill="#EE3433" d="M490.596,674.418c-0.003,0.022-0.005,0.044-0.008,0.066c-0.001,0.009-0.002,0.018-0.003,0.028
							c0.001-0.009,0.002-0.018,0.003-0.028C490.591,674.461,490.593,674.44,490.596,674.418z"/>
						<path fill="#EE3433" d="M490.641,673.901c0,0.007-0.001,0.014-0.001,0.02c0,0.006-0.001,0.012-0.001,0.019
							c0-0.006,0.001-0.012,0.001-0.019C490.64,673.914,490.641,673.907,490.641,673.901z"/>
						<path fill="#EE3433" d="M490.538,674.823c-0.008,0.048-0.016,0.097-0.025,0.145c-0.001,0.007-0.003,0.014-0.004,0.021
							c0.001-0.007,0.003-0.014,0.004-0.021C490.522,674.92,490.53,674.871,490.538,674.823z"/>
						<path fill="#EE3433" d="M490.409,675.452c0.003-0.012,0.006-0.023,0.009-0.035
							C490.414,675.429,490.412,675.441,490.409,675.452c-0.01,0.041-0.02,0.082-0.031,0.123c-0.007,0.026-0.014,0.052-0.021,0.078
							c0.007-0.026,0.014-0.052,0.021-0.078C490.388,675.534,490.399,675.493,490.409,675.452z"/>
						<path fill="#EE3433" d="M489.39,677.877c-0.013,0.022-0.027,0.044-0.04,0.065c-0.009,0.014-0.018,0.028-0.027,0.043
							c0.009-0.014,0.018-0.028,0.027-0.043C489.363,677.921,489.376,677.899,489.39,677.877z"/>
						<path fill="#EE3433" d="M488.964,678.502c-0.04,0.053-0.08,0.105-0.121,0.157c-0.008,0.01-0.015,0.019-0.023,0.029
							c0.008-0.01,0.015-0.019,0.023-0.029C488.884,678.607,488.925,678.555,488.964,678.502z"/>
						<path fill="#EE3433" d="M489.141,678.257c-0.006,0.009-0.012,0.018-0.018,0.026c-0.014,0.019-0.027,0.039-0.041,0.058
							c0.014-0.019,0.027-0.039,0.041-0.058C489.129,678.274,489.135,678.265,489.141,678.257z"/>
						<path fill="#EE3433" d="M490.3,675.851c0.007-0.024,0.014-0.048,0.021-0.073C490.315,675.803,490.308,675.827,490.3,675.851
							c-0.014,0.047-0.029,0.093-0.043,0.14c-0.006,0.018-0.011,0.037-0.017,0.055c0.006-0.018,0.011-0.037,0.017-0.055
							C490.272,675.945,490.286,675.898,490.3,675.851z"/>
						<g>
							<path fill="none" d="M491.457,680.318c0.011-0.015,0.022-0.031,0.033-0.046C491.479,680.288,491.468,680.303,491.457,680.318
								c-0.036,0.05-0.073,0.1-0.11,0.15c-0.012,0.016-0.024,0.031-0.036,0.047c0.012-0.016,0.024-0.031,0.036-0.047
								C491.384,680.419,491.421,680.369,491.457,680.318z"/>
							<path fill="none" d="M491.728,679.925c0.027-0.041,0.053-0.083,0.079-0.124C491.781,679.843,491.755,679.884,491.728,679.925
								c-0.026,0.04-0.053,0.079-0.079,0.119c-0.016,0.024-0.033,0.048-0.049,0.072c0.016-0.024,0.033-0.048,0.049-0.072
								C491.675,680.005,491.702,679.965,491.728,679.925z"/>
							<path fill="none" d="M492.011,679.468c0.021-0.036,0.043-0.072,0.064-0.109C492.054,679.395,492.033,679.431,492.011,679.468
								c-0.035,0.059-0.07,0.119-0.106,0.177c-0.021,0.034-0.043,0.068-0.064,0.102c0.021-0.034,0.043-0.068,0.064-0.102
								C491.942,679.586,491.976,679.527,492.011,679.468z"/>
							<path fill="none" d="M492.237,679.067c0.037-0.07,0.073-0.141,0.109-0.212C492.31,678.926,492.274,678.997,492.237,679.067
								c-0.014,0.027-0.03,0.054-0.044,0.081c-0.038,0.071-0.077,0.141-0.117,0.211c0.04-0.07,0.078-0.14,0.117-0.211
								C492.207,679.121,492.222,679.094,492.237,679.067z"/>
							<path fill="none" d="M490.39,681.584c0.008-0.008,0.015-0.016,0.022-0.023C490.405,681.568,490.398,681.576,490.39,681.584
								c-0.045,0.046-0.091,0.09-0.137,0.135c-0.004,0.004-0.008,0.008-0.012,0.012c0.004-0.004,0.008-0.008,0.012-0.012
								C490.299,681.674,490.345,681.629,490.39,681.584z"/>
							<path fill="none" d="M490.716,681.237c0.041-0.046,0.082-0.092,0.123-0.138c0.032-0.037,0.064-0.074,0.096-0.112
								c0.014-0.017,0.028-0.034,0.043-0.051c-0.014,0.017-0.028,0.034-0.043,0.051c-0.032,0.037-0.064,0.075-0.096,0.112
								C490.799,681.145,490.758,681.191,490.716,681.237c-0.032,0.036-0.065,0.072-0.098,0.108
								c-0.015,0.017-0.031,0.033-0.047,0.049c0.016-0.017,0.031-0.033,0.047-0.049
								C490.651,681.309,490.684,681.273,490.716,681.237z"/>
							<path fill="none" d="M491.174,680.694c-0.009,0.012-0.019,0.024-0.028,0.036c-0.004,0.005-0.008,0.01-0.012,0.014
								c0.004-0.005,0.008-0.01,0.012-0.014C491.155,680.719,491.164,680.706,491.174,680.694z"/>
							<path fill="none" d="M493.255,676.401c0.016-0.062,0.03-0.125,0.045-0.187c0.011-0.049,0.023-0.099,0.034-0.149
								c0.002-0.01,0.004-0.021,0.006-0.031c-0.002,0.01-0.004,0.021-0.006,0.031c-0.011,0.05-0.022,0.099-0.034,0.149
								C493.285,676.276,493.271,676.339,493.255,676.401c-0.012,0.05-0.025,0.099-0.038,0.149
								c-0.006,0.021-0.012,0.042-0.017,0.064c0.006-0.021,0.012-0.042,0.017-0.064C493.23,676.5,493.243,676.451,493.255,676.401z"
								/>
							<path fill="none" d="M492.534,678.468c0.015-0.033,0.029-0.066,0.044-0.099C492.563,678.402,492.549,678.435,492.534,678.468
								c-0.037,0.081-0.076,0.161-0.115,0.241c-0.007,0.014-0.014,0.029-0.021,0.043c0.007-0.014,0.014-0.029,0.021-0.043
								C492.458,678.629,492.497,678.549,492.534,678.468z"/>
							<path fill="none" d="M493.539,674.8c-0.009,0.078-0.017,0.157-0.027,0.235c-0.002,0.014-0.004,0.027-0.006,0.041
								c0.002-0.014,0.004-0.027,0.006-0.041C493.522,674.956,493.531,674.878,493.539,674.8z"/>
							<path fill="none" d="M493.025,677.208c0.016-0.048,0.031-0.096,0.046-0.144c0.019-0.061,0.037-0.121,0.055-0.182
								c-0.018,0.061-0.036,0.122-0.055,0.182C493.055,677.112,493.04,677.16,493.025,677.208c-0.02,0.061-0.04,0.121-0.061,0.182
								c-0.005,0.015-0.01,0.029-0.015,0.044c0.005-0.015,0.01-0.029,0.015-0.044C492.985,677.329,493.005,677.269,493.025,677.208z
								"/>
							<path fill="none" d="M492.848,677.713c0.006-0.015,0.011-0.03,0.017-0.045C492.859,677.682,492.854,677.698,492.848,677.713
								c-0.017,0.045-0.034,0.09-0.051,0.135c-0.024,0.063-0.05,0.125-0.075,0.186c0.025-0.062,0.051-0.124,0.075-0.186
								C492.814,677.803,492.831,677.758,492.848,677.713z"/>
							<path fill="none" d="M493.461,675.385c-0.008,0.047-0.016,0.094-0.024,0.141c-0.005,0.03-0.011,0.059-0.016,0.089
								c0.005-0.03,0.011-0.059,0.016-0.089C493.445,675.479,493.454,675.432,493.461,675.385z"/>
							<path fill="none" d="M489.247,682.585c-0.036,0.027-0.071,0.055-0.107,0.081c-0.02,0.015-0.04,0.029-0.06,0.043
								c0.02-0.014,0.04-0.028,0.06-0.043C489.176,682.639,489.211,682.612,489.247,682.585z"/>
							<path fill="none" d="M488.957,682.796c-0.029,0.021-0.058,0.042-0.088,0.062c-0.025,0.017-0.05,0.033-0.075,0.05
								c0.025-0.017,0.05-0.033,0.075-0.05C488.899,682.838,488.928,682.817,488.957,682.796z"/>
							<path fill="none" d="M489.662,682.256c0.003-0.003,0.006-0.005,0.009-0.008C489.668,682.251,489.665,682.253,489.662,682.256
								c-0.085,0.071-0.17,0.141-0.257,0.209c-0.005,0.004-0.009,0.007-0.014,0.01c0.005-0.003,0.009-0.007,0.014-0.01
								C489.491,682.396,489.577,682.327,489.662,682.256z"/>
							<path fill="none" d="M490.023,681.937c-0.006,0.005-0.012,0.011-0.017,0.016c-0.007,0.007-0.015,0.013-0.022,0.02
								c0.007-0.007,0.014-0.013,0.022-0.02C490.011,681.948,490.017,681.943,490.023,681.937z"/>
							<path fill="#4F4E4F" d="M493.583,695.466c0,0.171-0.139,0.31-0.31,0.31h-6.576c-0.171,0-0.31-0.139-0.31-0.31v-0.909
								c0-0.158,0.119-0.289,0.275-0.307c1.127-0.134,2.042-1.084,2.042-2.249l-0.001-9.043c0,0,0,0,0,0v0.01
								c0.017-0.012,0.035-0.023,0.052-0.035c0.012-0.008,0.025-0.017,0.037-0.025c0.025-0.017,0.05-0.033,0.075-0.05
								c0.03-0.02,0.058-0.041,0.088-0.062c0.029-0.021,0.059-0.041,0.088-0.062c0.012-0.009,0.024-0.017,0.036-0.026
								c0.02-0.014,0.04-0.028,0.06-0.043c0.036-0.026,0.071-0.054,0.107-0.081c0.037-0.028,0.075-0.056,0.112-0.085
								c0.011-0.008,0.021-0.016,0.032-0.024c0.005-0.003,0.009-0.007,0.014-0.01c0.087-0.068,0.173-0.138,0.257-0.209
								c0.003-0.003,0.006-0.005,0.009-0.008c0.022-0.018,0.043-0.037,0.065-0.056c0.059-0.051,0.118-0.101,0.176-0.153
								c0.024-0.022,0.048-0.044,0.072-0.066c0.007-0.007,0.015-0.013,0.022-0.02c0.006-0.005,0.012-0.011,0.017-0.016
								c0.044-0.04,0.089-0.081,0.132-0.122c0.029-0.028,0.058-0.056,0.087-0.085c0.004-0.004,0.008-0.008,0.012-0.012
								c0.046-0.045,0.092-0.09,0.137-0.135c0.008-0.008,0.015-0.015,0.022-0.023c0.026-0.026,0.052-0.053,0.077-0.08
								c0.027-0.029,0.055-0.058,0.082-0.087c0.016-0.017,0.031-0.033,0.047-0.049c0.033-0.036,0.065-0.072,0.098-0.108
								c0.041-0.046,0.082-0.092,0.123-0.138c0.032-0.037,0.064-0.074,0.096-0.112c0.014-0.017,0.028-0.034,0.043-0.051
								c0.025-0.03,0.05-0.06,0.075-0.09c0.027-0.033,0.054-0.067,0.081-0.101c0.004-0.005,0.008-0.01,0.012-0.014
								c0.01-0.012,0.019-0.024,0.028-0.036c0.028-0.036,0.057-0.072,0.085-0.109c0.018-0.023,0.036-0.047,0.053-0.07
								c0.012-0.016,0.024-0.031,0.036-0.047c0.037-0.05,0.073-0.1,0.11-0.15c0.011-0.015,0.022-0.031,0.033-0.046
								c0.017-0.024,0.035-0.048,0.052-0.073c0.019-0.028,0.038-0.056,0.057-0.084c0.016-0.024,0.033-0.048,0.049-0.072
								c0.027-0.039,0.053-0.079,0.079-0.119c0.027-0.041,0.053-0.083,0.079-0.124c0.008-0.013,0.017-0.026,0.025-0.04
								c0.003-0.005,0.006-0.01,0.009-0.015c0.021-0.034,0.043-0.068,0.064-0.102c0.036-0.059,0.071-0.118,0.106-0.177
								c0.021-0.036,0.043-0.072,0.064-0.109c0.04-0.07,0.078-0.14,0.117-0.211c0.015-0.027,0.03-0.054,0.045-0.081
								c0.037-0.07,0.073-0.141,0.109-0.212c0.014-0.028,0.03-0.056,0.044-0.085c0.003-0.006,0.006-0.012,0.009-0.018
								c0.007-0.014,0.014-0.029,0.021-0.043c0.039-0.08,0.078-0.16,0.115-0.241c0.015-0.033,0.029-0.066,0.044-0.099
								c0.002-0.004,0.004-0.008,0.005-0.012c0.029-0.065,0.058-0.131,0.087-0.197c0.018-0.042,0.034-0.084,0.052-0.126
								c0.025-0.062,0.051-0.124,0.075-0.186c0.017-0.045,0.034-0.09,0.051-0.135c0.006-0.015,0.011-0.03,0.017-0.045
								c0.017-0.046,0.034-0.091,0.051-0.137c0.011-0.032,0.022-0.064,0.033-0.096c0.005-0.015,0.01-0.029,0.015-0.044
								c0.021-0.06,0.041-0.121,0.061-0.182c0.016-0.048,0.031-0.096,0.046-0.144c0.019-0.061,0.037-0.121,0.055-0.182
								c0.014-0.049,0.028-0.098,0.042-0.147c0.011-0.04,0.022-0.08,0.032-0.121c0.006-0.021,0.012-0.042,0.017-0.064
								c0.013-0.049,0.026-0.099,0.038-0.149c0.015-0.062,0.03-0.125,0.045-0.187c0.011-0.049,0.023-0.099,0.034-0.149
								c0.002-0.01,0.004-0.021,0.006-0.031c0.011-0.054,0.023-0.107,0.033-0.161c0.01-0.049,0.02-0.098,0.029-0.148
								c0.007-0.036,0.013-0.073,0.019-0.11c0.005-0.03,0.011-0.059,0.016-0.089c0.008-0.047,0.016-0.094,0.024-0.141
								c0-0.001,0-0.003,0.001-0.004c0.011-0.07,0.021-0.14,0.031-0.21c0.004-0.032,0.009-0.064,0.013-0.096
								c0.002-0.014,0.004-0.027,0.006-0.041c0.01-0.078,0.019-0.156,0.027-0.235c0.004-0.038,0.009-0.076,0.013-0.115
								c0.001-0.015,0.002-0.03,0.004-0.045c0.01-0.102,0.019-0.205,0.027-0.308V695.466z"/>
							<path fill="#EE3433" d="M492.67,678.16c0.018-0.042,0.035-0.084,0.052-0.126C492.704,678.076,492.688,678.118,492.67,678.16
								c-0.028,0.066-0.057,0.131-0.087,0.197c-0.002,0.004-0.004,0.008-0.005,0.012c0.002-0.004,0.004-0.008,0.005-0.012
								C492.612,678.291,492.642,678.226,492.67,678.16z"/>
							<path fill="#EE3433" d="M492.949,677.434c-0.011,0.032-0.022,0.064-0.033,0.096c-0.017,0.046-0.034,0.092-0.051,0.137
								c0.017-0.046,0.034-0.091,0.051-0.137C492.927,677.498,492.938,677.466,492.949,677.434z"/>
							<path fill="#EE3433" d="M493.556,674.64c-0.001,0.015-0.002,0.03-0.004,0.045c-0.004,0.038-0.009,0.077-0.013,0.115
								c-0.009,0.078-0.017,0.157-0.027,0.235c-0.002,0.014-0.004,0.027-0.006,0.041c-0.004,0.032-0.009,0.064-0.014,0.096
								c-0.01,0.07-0.02,0.14-0.031,0.21c0,0.001,0,0.003-0.001,0.004c-0.007,0.047-0.016,0.094-0.024,0.141
								c-0.005,0.03-0.01,0.059-0.016,0.089c-0.006,0.037-0.013,0.073-0.019,0.11c-0.009,0.049-0.019,0.099-0.029,0.148
								c-0.011,0.054-0.022,0.108-0.033,0.161c-0.002,0.01-0.004,0.021-0.006,0.031c-0.011,0.05-0.022,0.099-0.034,0.149
								c-0.014,0.063-0.029,0.125-0.045,0.187c-0.012,0.05-0.025,0.099-0.038,0.149c-0.006,0.021-0.012,0.042-0.017,0.064
								c-0.011,0.04-0.021,0.081-0.033,0.121c-0.014,0.049-0.028,0.098-0.042,0.147c-0.018,0.061-0.036,0.122-0.055,0.182
								c-0.015,0.048-0.03,0.096-0.046,0.144c-0.02,0.061-0.04,0.121-0.061,0.182c-0.005,0.015-0.01,0.029-0.015,0.044
								c-0.011,0.032-0.022,0.064-0.033,0.096c-0.016,0.046-0.034,0.092-0.051,0.137c-0.006,0.015-0.011,0.03-0.017,0.045
								c-0.017,0.045-0.034,0.09-0.051,0.135c-0.024,0.063-0.05,0.125-0.075,0.186c-0.017,0.042-0.034,0.084-0.052,0.126
								c-0.028,0.066-0.057,0.131-0.087,0.197c-0.002,0.004-0.004,0.008-0.005,0.012c-0.015,0.033-0.029,0.066-0.044,0.099
								c-0.037,0.081-0.076,0.161-0.115,0.241c-0.007,0.014-0.014,0.029-0.021,0.043c-0.003,0.006-0.006,0.012-0.009,0.018
								c-0.014,0.029-0.029,0.057-0.044,0.085c-0.036,0.071-0.072,0.142-0.109,0.212c-0.014,0.027-0.03,0.054-0.045,0.081
								c-0.038,0.071-0.077,0.141-0.117,0.211c-0.021,0.036-0.043,0.072-0.064,0.109c-0.035,0.059-0.07,0.119-0.106,0.177
								c-0.021,0.034-0.043,0.068-0.064,0.102c-0.003,0.005-0.006,0.01-0.009,0.015c-0.008,0.013-0.017,0.026-0.025,0.04
								c-0.026,0.042-0.052,0.083-0.079,0.124c-0.026,0.04-0.053,0.079-0.079,0.119c-0.016,0.024-0.033,0.048-0.049,0.072
								c-0.019,0.028-0.038,0.056-0.057,0.084c-0.017,0.024-0.034,0.048-0.052,0.073c-0.011,0.015-0.022,0.031-0.033,0.046
								c-0.036,0.05-0.073,0.1-0.11,0.15c-0.012,0.016-0.024,0.031-0.036,0.047c-0.018,0.023-0.035,0.047-0.053,0.07
								c-0.028,0.036-0.056,0.073-0.085,0.109c-0.009,0.012-0.019,0.024-0.028,0.036c-0.004,0.005-0.008,0.01-0.012,0.014
								c-0.027,0.034-0.054,0.067-0.081,0.101c-0.025,0.03-0.05,0.06-0.075,0.09c-0.014,0.017-0.028,0.034-0.043,0.051
								c-0.032,0.037-0.064,0.075-0.096,0.112c-0.041,0.047-0.082,0.092-0.123,0.138c-0.032,0.036-0.065,0.072-0.098,0.108
								c-0.015,0.017-0.031,0.033-0.047,0.049c-0.027,0.029-0.055,0.058-0.082,0.087c-0.026,0.027-0.051,0.053-0.077,0.08
								c-0.008,0.008-0.015,0.016-0.022,0.023c-0.045,0.046-0.091,0.09-0.137,0.135c-0.004,0.004-0.008,0.008-0.012,0.012
								c-0.029,0.028-0.057,0.057-0.087,0.085c-0.043,0.041-0.088,0.082-0.132,0.122c-0.006,0.005-0.012,0.011-0.017,0.016
								c-0.007,0.007-0.015,0.013-0.022,0.02c-0.024,0.022-0.048,0.044-0.072,0.066c-0.058,0.052-0.117,0.102-0.176,0.153
								c-0.022,0.018-0.043,0.037-0.065,0.056c-0.003,0.003-0.006,0.005-0.009,0.008c-0.085,0.071-0.17,0.141-0.257,0.209
								c-0.005,0.004-0.009,0.007-0.014,0.01c-0.011,0.008-0.022,0.016-0.032,0.024c-0.037,0.029-0.075,0.057-0.112,0.085
								c-0.036,0.027-0.071,0.055-0.107,0.081c-0.02,0.014-0.04,0.029-0.06,0.043c-0.012,0.009-0.024,0.017-0.036,0.026
								c-0.029,0.021-0.058,0.041-0.088,0.062c-0.029,0.021-0.058,0.042-0.088,0.062c-0.025,0.017-0.05,0.033-0.075,0.05
								c-0.013,0.008-0.025,0.017-0.037,0.025c-0.017,0.012-0.035,0.023-0.052,0.035v-0.01l-0.003-4.099l0-0.026
								c0.006-0.007,0.011-0.013,0.017-0.02c0.03-0.037,0.06-0.074,0.09-0.111c0,0,0,0,0,0c0.004-0.005,0.008-0.01,0.012-0.014
								c0.008-0.01,0.015-0.019,0.023-0.029c0.041-0.052,0.081-0.104,0.121-0.157c0.008-0.011,0.016-0.022,0.024-0.033
								c0.031-0.042,0.062-0.085,0.093-0.128c0.014-0.019,0.027-0.039,0.041-0.058c0.006-0.009,0.012-0.018,0.018-0.026
								c0.018-0.026,0.037-0.053,0.055-0.08c0.015-0.022,0.029-0.043,0.043-0.065c0.023-0.034,0.045-0.068,0.067-0.103
								c0.005-0.008,0.01-0.016,0.016-0.024c0.009-0.014,0.018-0.028,0.027-0.043c0.014-0.022,0.027-0.043,0.04-0.065
								c0.008-0.014,0.017-0.027,0.025-0.041c0.005-0.008,0.01-0.017,0.015-0.025c0.008-0.013,0.016-0.027,0.024-0.04
								c0.018-0.03,0.035-0.059,0.052-0.089c0.005-0.009,0.011-0.018,0.016-0.028c0.011-0.019,0.022-0.038,0.033-0.056
								c0.033-0.058,0.065-0.116,0.097-0.175c0-0.001,0.001-0.001,0.001-0.002c0-0.001,0.001-0.001,0.001-0.002
								c0.023-0.042,0.044-0.085,0.066-0.128c0.008-0.016,0.016-0.031,0.024-0.046c0.01-0.019,0.019-0.039,0.029-0.059
								c0.012-0.024,0.023-0.047,0.035-0.071c0.008-0.017,0.017-0.034,0.025-0.051c0.008-0.017,0.016-0.033,0.023-0.05
								c0.003-0.007,0.006-0.013,0.009-0.02c0.018-0.038,0.035-0.076,0.052-0.114c0.011-0.024,0.022-0.049,0.032-0.073
								c0.017-0.038,0.033-0.076,0.049-0.115c0.01-0.024,0.02-0.049,0.03-0.073c0.017-0.041,0.033-0.081,0.049-0.122
								c0.004-0.01,0.008-0.02,0.012-0.03c0.005-0.012,0.01-0.025,0.014-0.037c0.016-0.043,0.032-0.086,0.047-0.129
								c0.003-0.009,0.006-0.017,0.009-0.026c0.004-0.012,0.009-0.024,0.013-0.036c0.022-0.064,0.044-0.128,0.065-0.193
								c0.006-0.018,0.012-0.037,0.017-0.055c0.015-0.047,0.029-0.093,0.043-0.14c0.007-0.024,0.014-0.048,0.021-0.073
								c0.012-0.042,0.024-0.083,0.035-0.125c0.007-0.026,0.014-0.052,0.021-0.078c0.011-0.041,0.021-0.082,0.031-0.123
								c0.003-0.012,0.006-0.023,0.008-0.035c0.004-0.015,0.007-0.029,0.011-0.044c0.006-0.025,0.011-0.05,0.017-0.075
								c0.004-0.017,0.008-0.035,0.012-0.052c0.005-0.025,0.011-0.05,0.016-0.075c0.001-0.005,0.002-0.011,0.003-0.016
								c0.009-0.043,0.018-0.087,0.026-0.13c0.002-0.012,0.005-0.024,0.007-0.035c0.001-0.007,0.003-0.014,0.004-0.021
								c0.009-0.048,0.017-0.096,0.025-0.145c0.003-0.02,0.007-0.04,0.01-0.06c0.001-0.004,0.001-0.008,0.002-0.012
								c0.001-0.01,0.003-0.019,0.004-0.029c0.005-0.034,0.01-0.068,0.015-0.102c0.003-0.021,0.006-0.043,0.009-0.064
								c0.002-0.015,0.004-0.031,0.006-0.046c0.001-0.009,0.002-0.018,0.003-0.028c0.003-0.022,0.005-0.044,0.008-0.066
								c0.003-0.023,0.006-0.046,0.008-0.07c0.003-0.027,0.006-0.054,0.008-0.082c0.004-0.043,0.008-0.087,0.012-0.13
								c0.002-0.028,0.005-0.056,0.007-0.084c0.003-0.038,0.005-0.075,0.007-0.113c0-0.006,0.001-0.012,0.001-0.019
								c0-0.007,0.001-0.013,0.001-0.02c0.001-0.02,0.002-0.04,0.003-0.061c0.002-0.048,0.004-0.096,0.006-0.144
								c0.001-0.023,0.002-0.046,0.002-0.07c0.002-0.071,0.003-0.143,0.003-0.214c0-2.082-0.741-4.022-1.954-5.539v0c0,0,0,0,0,0
								v-3.514c0-0.171-0.139-0.31-0.31-0.31h-6.08c-1.353,0-2.493,0.474-3.351,1.269c-3.45,1.452-5.208,5.231-6.101,8.534
								c-0.03,0.11-0.054,0.201-0.074,0.269c-0.082,0.286-0.172,0.572-0.266,0.857c-0.053-0.511-0.081-1.034-0.081-1.568
								c0-6.182,3.351-11.281,9.217-11.609c0.152-0.006,0.305-0.01,0.459-0.01c0.086,0,0.172,0.001,0.259,0.003
								c2.987,0.005,5.81,1.235,7.953,3.465c1.915,1.993,3.053,4.546,3.257,7.266v1.807
								C493.575,674.435,493.566,674.538,493.556,674.64z"/>
							<path fill="#EE3433" d="M493.402,675.725c0.007-0.036,0.013-0.073,0.019-0.11
								C493.415,675.651,493.409,675.688,493.402,675.725c-0.009,0.049-0.019,0.099-0.029,0.148
								c-0.011,0.054-0.022,0.108-0.033,0.161c0.011-0.054,0.023-0.107,0.033-0.161
								C493.383,675.823,493.393,675.774,493.402,675.725z"/>
							<path fill="#EE3433" d="M493.493,675.171c0.004-0.032,0.009-0.064,0.014-0.096
								C493.502,675.107,493.497,675.139,493.493,675.171c-0.01,0.07-0.02,0.14-0.031,0.21c0,0.001,0,0.003-0.001,0.004
								c0-0.001,0-0.003,0.001-0.004C493.473,675.311,493.483,675.241,493.493,675.171z"/>
							<path fill="#EE3433" d="M493.539,674.8c0.004-0.038,0.009-0.076,0.013-0.115c0.001-0.015,0.002-0.03,0.004-0.045
								c-0.001,0.015-0.002,0.03-0.004,0.045C493.548,674.723,493.544,674.761,493.539,674.8z"/>
							<path fill="#EE3433" d="M493.2,676.614c-0.011,0.04-0.021,0.081-0.032,0.121c-0.014,0.049-0.028,0.098-0.042,0.147
								c0.014-0.049,0.028-0.098,0.042-0.147C493.179,676.694,493.189,676.654,493.2,676.614z"/>
							<path fill="#EE3433" d="M491.134,680.745c-0.027,0.034-0.054,0.067-0.081,0.101c-0.025,0.03-0.05,0.06-0.075,0.09
								c0.025-0.03,0.05-0.06,0.075-0.09C491.08,680.812,491.107,680.779,491.134,680.745z"/>
							<path fill="#EE3433" d="M492.399,678.752c-0.003,0.006-0.006,0.012-0.009,0.018c-0.014,0.029-0.029,0.057-0.044,0.085
								c0.014-0.028,0.03-0.056,0.044-0.085C492.393,678.764,492.396,678.758,492.399,678.752z"/>
							<path fill="#EE3433" d="M491.312,680.515c-0.018,0.023-0.035,0.047-0.053,0.07c-0.028,0.036-0.056,0.073-0.085,0.109
								c0.028-0.036,0.057-0.072,0.085-0.109C491.276,680.562,491.294,680.539,491.312,680.515z"/>
							<path fill="#EE3433" d="M489.912,682.039c0.024-0.022,0.048-0.044,0.072-0.066
								C489.96,681.995,489.936,682.018,489.912,682.039c-0.058,0.052-0.117,0.102-0.176,0.153
								c-0.022,0.018-0.043,0.037-0.065,0.056c0.022-0.018,0.043-0.037,0.065-0.056
								C489.795,682.142,489.854,682.091,489.912,682.039z"/>
							<path fill="#EE3433" d="M490.571,681.394c-0.027,0.029-0.054,0.058-0.082,0.087c-0.026,0.027-0.051,0.053-0.077,0.08
								c0.026-0.026,0.051-0.053,0.077-0.08C490.517,681.452,490.544,681.423,490.571,681.394z"/>
							<path fill="#EE3433" d="M490.241,681.731c-0.029,0.028-0.057,0.057-0.087,0.085c-0.043,0.041-0.088,0.082-0.132,0.122
								c0.044-0.04,0.089-0.081,0.132-0.122C490.184,681.787,490.212,681.759,490.241,681.731z"/>
							<path fill="#EE3433" d="M491.842,679.747c-0.003,0.005-0.006,0.01-0.009,0.015c-0.008,0.013-0.017,0.026-0.025,0.04
								c0.008-0.013,0.017-0.026,0.025-0.04C491.836,679.757,491.839,679.752,491.842,679.747z"/>
							<path fill="#EE3433" d="M489.081,682.708c-0.012,0.009-0.024,0.017-0.036,0.026c-0.029,0.021-0.058,0.041-0.088,0.062
								c0.029-0.021,0.059-0.041,0.088-0.062C489.056,682.725,489.068,682.717,489.081,682.708z"/>
							<path fill="#EE3433" d="M489.391,682.475c-0.011,0.008-0.022,0.016-0.032,0.024c-0.037,0.029-0.075,0.057-0.112,0.085
								c0.037-0.028,0.075-0.056,0.112-0.085C489.369,682.491,489.38,682.483,489.391,682.475z"/>
							<path fill="#EE3433" d="M491.599,680.116c-0.019,0.028-0.038,0.056-0.057,0.084c-0.017,0.024-0.034,0.048-0.052,0.073
								c0.017-0.024,0.035-0.048,0.052-0.073C491.561,680.172,491.58,680.144,491.599,680.116z"/>
						</g>
						<path fill="#EE3433" d="M490.656,673.412c0,0.072-0.001,0.143-0.003,0.214c-0.001,0.023-0.002,0.046-0.002,0.07
							c0.001-0.023,0.002-0.046,0.002-0.07C490.655,673.555,490.656,673.484,490.656,673.412c0-2.082-0.741-4.022-1.954-5.539v0
							C489.915,669.39,490.656,671.33,490.656,673.412z"/>
						<path fill="#EE3433" d="M489.507,677.682c-0.017,0.03-0.035,0.06-0.052,0.089c-0.008,0.013-0.016,0.027-0.024,0.04
							c0.008-0.013,0.016-0.027,0.024-0.04C489.472,677.741,489.49,677.712,489.507,677.682z"/>
						<path fill="#EE3433" d="M490.175,676.239c0.022-0.064,0.044-0.128,0.065-0.193
							C490.219,676.111,490.197,676.175,490.175,676.239c-0.004,0.012-0.009,0.024-0.013,0.036
							c-0.003,0.009-0.006,0.017-0.009,0.026c0.003-0.009,0.006-0.017,0.009-0.026C490.166,676.263,490.17,676.251,490.175,676.239z
							"/>
						<path fill="#EE3433" d="M489.919,676.88c0.011-0.024,0.022-0.049,0.032-0.073c0.017-0.038,0.033-0.076,0.049-0.115
							c0.01-0.024,0.02-0.049,0.03-0.073c0.017-0.041,0.033-0.081,0.049-0.122c0.004-0.01,0.008-0.02,0.012-0.03
							c-0.004,0.01-0.008,0.02-0.012,0.03c-0.016,0.041-0.032,0.082-0.049,0.122c-0.01,0.024-0.02,0.049-0.03,0.073
							c-0.016,0.038-0.032,0.077-0.049,0.115C489.94,676.831,489.93,676.855,489.919,676.88c-0.017,0.038-0.034,0.076-0.052,0.114
							c-0.003,0.007-0.006,0.013-0.009,0.02c0.003-0.007,0.006-0.013,0.009-0.02C489.884,676.956,489.902,676.918,489.919,676.88z"
							/>
						<path fill="#EE3433" d="M489.774,677.186c0.012-0.024,0.023-0.047,0.035-0.071
							C489.797,677.138,489.786,677.162,489.774,677.186c-0.01,0.02-0.019,0.039-0.029,0.059c-0.008,0.016-0.016,0.031-0.024,0.046
							c0.008-0.016,0.016-0.031,0.024-0.046C489.755,677.225,489.764,677.205,489.774,677.186z"/>
						<path fill="#EE3433" d="M489.654,677.421c0,0.001-0.001,0.001-0.001,0.002c-0.032,0.059-0.064,0.117-0.097,0.175
							c0.033-0.058,0.065-0.116,0.097-0.175C489.653,677.422,489.653,677.421,489.654,677.421z"/>
					</g>
					<path fill="#FDD204" d="M488.386,683.17c-0.035,0.021-0.069,0.043-0.104,0.064C488.317,683.213,488.351,683.191,488.386,683.17
						z"/>
					<path fill="#702F8E" d="M488.652,683.004c-0.009,0.006-0.018,0.012-0.026,0.017v0c-0.01,0.007-0.021,0.013-0.031,0.019
						c0,0,0,0,0,0c-0.069,0.044-0.139,0.087-0.209,0.13c-0.035,0.021-0.069,0.043-0.104,0.064c-0.105,0.063-0.212,0.124-0.32,0.183
						c-1.453,0.795-3.142,1.27-5.014,1.33c-0.131,0.006-0.261,0.009-0.388,0.009c-0.184,0-0.365-0.005-0.545-0.013
						c-0.008,0-0.015,0-0.023-0.001c-0.006,0-0.013-0.001-0.019-0.001c-1.733-0.075-3.44-0.49-4.96-1.274
						c-1.642-0.847-3.035-2.081-4.028-3.568l-0.813-1.217l1.02-0.66l1.454-0.941l0.813,1.217c0.727,1.088,1.747,1.97,2.933,2.582
						c0.89,1.186,2.241,1.945,3.918,1.945c2.26,0,4.543-1.331,5.67-3.226c0,0,0,0,0,0c0.054-0.05,0.106-0.101,0.159-0.153
						c0.018-0.017,0.035-0.035,0.052-0.053c0.035-0.035,0.069-0.07,0.103-0.105c0.02-0.021,0.04-0.043,0.06-0.064
						c0.03-0.032,0.061-0.065,0.091-0.098c0.021-0.023,0.041-0.046,0.062-0.069c0.029-0.032,0.057-0.064,0.085-0.097
						c0.008-0.009,0.016-0.018,0.023-0.026c0.012-0.014,0.024-0.028,0.035-0.042v0c0.006-0.007,0.012-0.015,0.018-0.022
						c0.01-0.012,0.021-0.024,0.031-0.037l0,0.026l0.003,4.108C488.688,682.98,488.67,682.992,488.652,683.004z"/>
					<path fill="#ADD376" d="M443.126,680.789v-0.497c0.688-0.556,1.288-1.209,1.762-1.927l0.813-1.23l0.553,0.361
						C445.492,678.709,444.47,679.916,443.126,680.789z"/>
					<path fill="#FFF08B" d="M460.412,664.749c-2.113-0.045-3.801,0.636-5.147,1.729c1.154-1.474,3.019-2.428,4.913-2.428h5.338
						c0.148,0,0.268,0.12,0.268,0.268v2.571c-1.453-1.326-3.326-2.139-5.34-2.139C460.434,664.749,460.423,664.749,460.412,664.749z
						"/>
					<path d="M438.924,661.798h1.476l0,0h-1.772C438.727,661.795,438.825,661.798,438.924,661.798z"/>
					<path d="M448.089,673.349C448.105,673.292,448.064,673.441,448.089,673.349L448.089,673.349z"/>
					<path d="M450.936,674.129C450.956,674.06,450.906,674.241,450.936,674.129L450.936,674.129z"/>
					<path fill="#FDD204" d="M468.393,665.307c0.49,0.517,0.928,1.071,1.313,1.656l0.253,0.4c0.235,0.39,0.448,0.792,0.636,1.205
						l-2.618,1.399c-0.227-0.525-0.502-1.023-0.818-1.489l-0.415-0.547c-0.096-0.127-0.195-0.25-0.297-0.37
						c-0.209-0.236-0.43-0.46-0.661-0.671v-2.571c0-0.148-0.12-0.268-0.268-0.268h-5.338c-1.894,0-3.759,0.955-4.913,2.428
						c-2.305,1.87-3.608,4.946-4.33,7.652c-0.233,0.818-0.532,1.65-0.88,2.459c-0.541,1.255-1.203,2.452-1.928,3.444
						c-0.591,0.807-1.236,1.521-1.928,2.138h-0.769c0.745-0.641,1.397-1.376,1.933-2.187l0.813-1.23l-1.922-1.256
						c1.036-1.647,1.594-3.304,1.834-4.147c-0.024,0.092,0.016-0.057,0,0c0.107-0.403,0.313-1.173,0.589-1.975
						c0.449-1.551,1.156-3.555,2.309-5.082c2.214-2.933,5.302-4.454,9.178-4.521c0.061-0.008,0.123-0.011,0.185-0.011
						c0.245,0,0.489,0.009,0.731,0.025c2.571,0.172,4.967,1.247,6.834,3.047C468.077,664.985,468.237,665.143,468.393,665.307z"/>
					<path fill="#8BC540" d="M447.363,679.983c-0.536,0.811-1.189,1.546-1.933,2.187h-2.303v-1.381
						c1.344-0.873,2.365-2.08,3.128-3.293l1.922,1.256L447.363,679.983z"/>
					<path fill="#4F4E4F" d="M431.831,690.069L431.831,690.069c0,1.448-1.174,2.622-2.622,2.622c-1.448,0-2.622-1.174-2.622-2.622
						l0,0c0-1.448,1.174-2.622,2.622-2.622C430.657,687.446,431.831,688.62,431.831,690.069z"/>
					<g>
						<polygon fill="#35C4F2" points="431.852,664.101 431.852,664.095 431.856,664.092 431.856,664.098 						"/>
					</g>
					<path fill="#4F4E4F" d="M426.572,672.352v-10.02c0-0.292,0.237-0.529,0.529-0.529h4.227c0.292,0,0.529,0.237,0.529,0.529v1.28
						C428.912,665.495,426.881,668.679,426.572,672.352z"/>
					<path fill="#4F4E4F" d="M431.856,683.052v1.297c0,0.235-0.191,0.426-0.426,0.426h-6.646c-0.235,0-0.426-0.191-0.426-0.426
						v-0.89c0-0.213,0.159-0.389,0.369-0.422c1.071-0.17,1.845-1.245,1.845-2.377v-6.348
						C426.881,677.986,428.912,681.169,431.856,683.052z"/>
					<path fill="#35C4F2" d="M430.494,676.753c0.081,0.185,0.169,0.366,0.263,0.544
						C430.663,677.119,430.575,676.938,430.494,676.753z"/>
					<path fill="#35C4F2" d="M430.357,676.419c0.036,0.094,0.074,0.186,0.113,0.278
						C430.431,676.605,430.393,676.512,430.357,676.419z"/>
					<path fill="#35C4F2" d="M431.088,677.863c0.008,0.012,0.016,0.024,0.024,0.036
						C431.104,677.887,431.096,677.875,431.088,677.863z"/>
					<path fill="#35C4F2" d="M429.828,673.504c0,0.351,0.022,0.695,0.063,1.032C429.85,674.199,429.828,673.854,429.828,673.504z"/>
					<path fill="#35C4F2" d="M429.999,675.192c0.001,0.006,0.003,0.011,0.004,0.017C430.001,675.204,430,675.198,429.999,675.192z"
						/>
					<path fill="#35C4F2" d="M430.065,675.485c0.04,0.161,0.084,0.319,0.133,0.476C430.149,675.804,430.105,675.645,430.065,675.485
						z"/>
					<path fill="#35C4F2" d="M431.396,678.308c0.045,0.061,0.092,0.122,0.139,0.182C431.488,678.43,431.441,678.369,431.396,678.308
						z"/>
					<path fill="#35C4F2" d="M431.112,677.899c0.09,0.139,0.185,0.275,0.283,0.409C431.297,678.175,431.202,678.038,431.112,677.899
						z"/>
					<path fill="#35C4F2" d="M429.891,674.536c0.027,0.222,0.063,0.441,0.108,0.656
						C429.954,674.977,429.918,674.758,429.891,674.536z"/>
					<path fill="#35C4F2" d="M431.706,668.099c0.048-0.054,0.097-0.108,0.147-0.161c0,0,0,0,0,0
						C431.804,667.99,431.755,668.044,431.706,668.099z"/>
					<path fill="#35C4F2" d="M430.002,675.209c0.019,0.093,0.041,0.184,0.063,0.276
						C430.043,675.394,430.022,675.302,430.002,675.209z"/>
					<path fill="#35C4F2" d="M430.757,677.297c0.103,0.193,0.213,0.382,0.331,0.566C430.97,677.679,430.86,677.49,430.757,677.297z"
						/>
					<path fill="#35C4F2" d="M431.535,678.49c0.102,0.129,0.207,0.256,0.317,0.38c0.001,0.001,0.003,0.003,0.004,0.004
						c-0.001-0.001-0.003-0.003-0.004-0.004C431.742,678.746,431.637,678.619,431.535,678.49z"/>
					<path fill="#35C4F2" d="M430.198,675.961c0.048,0.155,0.101,0.307,0.159,0.458C430.3,676.268,430.247,676.115,430.198,675.961z
						"/>
					<path fill="#35C4F2" d="M430.47,676.697c0.008,0.019,0.016,0.038,0.024,0.056C430.486,676.734,430.478,676.716,430.47,676.697z
						"/>
					<polygon fill="#35C4F2" points="431.853,667.937 431.853,667.937 431.853,667.937 					"/>
					<polygon fill="#35C4F2" points="431.856,667.935 431.856,667.935 431.853,667.937 					"/>
					<polygon fill="#35C4F2" points="431.853,667.937 431.856,667.935 431.853,667.937 					"/>
					<path fill="#4F4E4F" d="M431.535,678.49c-0.047-0.06-0.094-0.121-0.139-0.182c-0.099-0.133-0.193-0.27-0.283-0.409
						c-0.008-0.012-0.016-0.024-0.024-0.036c-0.118-0.184-0.228-0.373-0.331-0.566c-0.094-0.178-0.182-0.359-0.263-0.544
						c-0.008-0.019-0.016-0.038-0.024-0.056c-0.039-0.092-0.077-0.185-0.113-0.278c-0.058-0.151-0.11-0.303-0.159-0.458
						c-0.049-0.156-0.093-0.315-0.133-0.476c-0.022-0.091-0.044-0.183-0.063-0.276c-0.001-0.006-0.003-0.011-0.004-0.017
						c-0.045-0.215-0.08-0.435-0.108-0.656c-0.041-0.337-0.063-0.681-0.063-1.032c0-1.962,0.727-3.935,1.879-5.405
						c0.048-0.054,0.097-0.108,0.147-0.161c0,0,0,0,0,0c0.001-0.001,0.002-0.002,0.002-0.003v10.939
						c-0.001-0.001-0.003-0.003-0.004-0.004C431.742,678.746,431.637,678.619,431.535,678.49z"/>
					<g>
						<path fill="none" d="M438.178,661.853c0.012-0.006,0.024-0.013,0.036-0.018C438.202,661.841,438.19,661.847,438.178,661.853z"
							/>
						<path fill="none" d="M438.091,661.907c0.011-0.008,0.022-0.017,0.033-0.024C438.113,661.89,438.102,661.899,438.091,661.907z"
							/>
						<path fill="none" d="M438.045,661.943c-0.011,0.01-0.021,0.021-0.031,0.031C438.025,661.964,438.034,661.953,438.045,661.943z
							"/>
						<path fill="none" d="M437.861,662.255c0.005-0.022,0.01-0.043,0.017-0.064C437.871,662.212,437.866,662.234,437.861,662.255z"
							/>
						<path fill="none" d="M437.949,662.055c0.009-0.013,0.017-0.027,0.028-0.04C437.967,662.028,437.958,662.042,437.949,662.055z"
							/>
						<path fill="none" d="M435.861,682.957c0.313-0.04,0.605-0.147,0.864-0.305C436.466,682.81,436.174,682.917,435.861,682.957z"
							/>
						<path fill="none" d="M431.856,678.874c-0.001-0.001-0.003-0.003-0.004-0.004c-0.11-0.124-0.216-0.251-0.317-0.38
							c-0.047-0.06-0.094-0.12-0.139-0.182c-0.099-0.133-0.193-0.27-0.283-0.409c-0.008-0.012-0.016-0.024-0.024-0.036
							c-0.118-0.184-0.228-0.373-0.331-0.566c-0.094-0.178-0.182-0.359-0.263-0.544c-0.008-0.019-0.016-0.038-0.024-0.056
							c-0.039-0.092-0.077-0.185-0.113-0.278c-0.058-0.15-0.11-0.303-0.159-0.458c-0.049-0.156-0.093-0.315-0.133-0.476
							c-0.023-0.091-0.044-0.183-0.063-0.276c-0.001-0.006-0.003-0.011-0.004-0.017c-0.045-0.216-0.08-0.435-0.108-0.656
							c-0.042-0.337-0.063-0.681-0.063-1.032c0-1.962,0.727-3.935,1.879-5.405c0.048-0.054,0.097-0.108,0.147-0.161
							c0.001-0.001,0.002-0.002,0.002-0.003v0c1.591-1.7,3.817-2.853,5.986-3.15v-2.387c0-0.036,0.003-0.072,0.009-0.106
							c-0.006,0.035-0.009,0.07-0.009,0.106v2.387v15.875c0,0.489-0.152,0.947-0.412,1.324c0,0,0,0,0,0
							C435.485,681.657,433.192,680.397,431.856,678.874z"/>
						<path fill="none" d="M437.897,662.148c0.007-0.017,0.014-0.034,0.023-0.05C437.912,662.115,437.905,662.132,437.897,662.148z"
							/>
						<polygon fill="none" points="435.577,682.975 435.577,684.178 435.577,684.178 435.577,682.975 						"/>
						<path fill="#4F4E4F" d="M436.725,682.652c0.048-0.029,0.096-0.06,0.142-0.093
							C436.821,682.592,436.774,682.623,436.725,682.652z"/>
						<path fill="#4F4E4F" d="M437.852,662.291c0.002-0.012,0.006-0.024,0.009-0.036
							C437.858,662.267,437.854,662.279,437.852,662.291z"/>
						<path fill="#4F4E4F" d="M437.878,662.191c0.005-0.015,0.013-0.028,0.019-0.043
							C437.891,662.163,437.884,662.176,437.878,662.191z"/>
						<path fill="#4F4E4F" d="M438.272,661.815c-0.02,0.006-0.039,0.012-0.058,0.021
							C438.233,661.827,438.252,661.821,438.272,661.815z"/>
						<path fill="#4F4E4F" d="M437.43,681.984c-0.153,0.223-0.344,0.418-0.563,0.575
							C437.086,682.403,437.277,682.208,437.43,681.984z"/>
						<path fill="#4F4E4F" d="M438.091,661.907c-0.016,0.012-0.032,0.023-0.046,0.036
							C438.06,661.93,438.076,661.919,438.091,661.907z"/>
						<g>
							<path fill="none" d="M435.861,682.957c0.313-0.04,0.605-0.147,0.864-0.305C436.466,682.81,436.174,682.917,435.861,682.957z"
								/>
							<path fill="none" d="M435.861,682.957c-0.093,0.012-0.188,0.018-0.284,0.018v0
								C435.674,682.975,435.768,682.969,435.861,682.957z"/>
							<path fill="none" d="M431.856,678.874c-0.001-0.001-0.003-0.003-0.004-0.004c-0.11-0.124-0.216-0.251-0.317-0.38
								c-0.047-0.06-0.094-0.12-0.139-0.182c-0.099-0.133-0.193-0.27-0.283-0.409c-0.008-0.012-0.016-0.024-0.024-0.036
								c-0.118-0.184-0.228-0.373-0.331-0.566c-0.094-0.178-0.182-0.359-0.263-0.544c-0.008-0.019-0.016-0.038-0.024-0.056
								c-0.039-0.092-0.077-0.185-0.113-0.278c-0.058-0.15-0.11-0.303-0.159-0.458c-0.049-0.156-0.093-0.315-0.133-0.476
								c-0.023-0.091-0.044-0.183-0.063-0.276c-0.001-0.006-0.003-0.011-0.004-0.017c-0.045-0.216-0.08-0.435-0.108-0.656
								c-0.042-0.337-0.063-0.681-0.063-1.032c0-1.962,0.727-3.935,1.879-5.405c0.048-0.054,0.097-0.108,0.147-0.161
								c0.001-0.001,0.002-0.002,0.002-0.003v0c1.591-1.7,3.817-2.853,5.986-3.15l0,0v15.875c0,0.489-0.152,0.947-0.412,1.324
								c0,0,0,0,0,0C435.485,681.657,433.192,680.397,431.856,678.874z"/>
							<path fill="none" d="M438.272,661.815c0.003-0.001,0.012-0.004,0.021-0.006C438.286,661.811,438.279,661.813,438.272,661.815
								z"/>
							<path fill="none" d="M437.43,681.984c-0.112,0.164-0.245,0.312-0.395,0.442C437.185,682.297,437.318,682.148,437.43,681.984z
								"/>
							<polygon fill="none" points="435.577,682.975 435.577,684.178 435.577,684.178 435.577,682.975 							"/>
							<path fill="#4F4E4F" d="M446.045,696.261c-4.529,0-8.203-3.724-8.203-8.153v-3.107v-0.254h-1.594h-0.103
								c-0.001,0-0.001,0-0.001,0h-0.141c-0.12,0-0.228-0.05-0.306-0.13c-0.074-0.077-0.12-0.181-0.12-0.296v-0.143l0,0h0v-1.203
								c0.096,0,0.191-0.006,0.284-0.018c0.313-0.04,0.605-0.147,0.864-0.305c0.048-0.029,0.096-0.06,0.142-0.093
								c0.058-0.042,0.114-0.086,0.168-0.133c0.149-0.13,0.282-0.278,0.395-0.442c0,0,0,0,0,0c0.26-0.378,0.412-0.836,0.412-1.324
								v-15.875l0,0v-2.387c0-0.036,0.003-0.072,0.009-0.106c0.002-0.012,0.006-0.024,0.009-0.036
								c0.005-0.022,0.01-0.043,0.017-0.064c0.005-0.015,0.013-0.028,0.019-0.043c0.007-0.017,0.014-0.034,0.023-0.05
								c0.008-0.015,0.019-0.029,0.029-0.043c0.009-0.013,0.017-0.027,0.028-0.04c0.012-0.015,0.025-0.028,0.038-0.041
								c0.01-0.011,0.02-0.022,0.031-0.031c0.015-0.013,0.03-0.025,0.046-0.036c0.011-0.008,0.022-0.017,0.033-0.024
								c0.017-0.011,0.035-0.02,0.053-0.029c0.012-0.006,0.024-0.013,0.036-0.018c0.019-0.008,0.038-0.014,0.058-0.021
								c0.007-0.002,0.014-0.004,0.021-0.006c0.016-0.005,0.035-0.01,0.041-0.012c0,0-0.001,0-0.001,0
								c0.098-0.005,0.197,0.003,0.295,0l1.772,0.001h2.113c0.339,0,0.613,0.261,0.613,0.6v17.895v0.497v1.381h2.303h0.769h2.58
								c0.297,0,0.538,0.241,0.538,0.538v1.526c0,0.284-0.23,0.513-0.513,0.513h-5.677v5.676c0,1.963,1.611,3.573,3.624,3.573
								c1.817,0,3.407-1.454,3.561-3.283c0.014-0.164,0.152-0.29,0.316-0.29h0.887c0.176,0,0.318,0.142,0.318,0.318v3.154
								C450.323,695.305,448.31,696.261,446.045,696.261z"/>
							<path fill="#8BC540" d="M438.293,661.809c-0.009,0.003-0.018,0.005-0.021,0.006c-0.02,0.006-0.039,0.012-0.058,0.021
								c-0.012,0.005-0.024,0.012-0.036,0.018c-0.018,0.009-0.036,0.018-0.053,0.029c-0.012,0.007-0.022,0.016-0.033,0.024
								c-0.016,0.012-0.032,0.023-0.046,0.036c-0.011,0.01-0.021,0.021-0.031,0.031c-0.013,0.013-0.026,0.026-0.038,0.041
								c-0.01,0.013-0.018,0.026-0.028,0.04c-0.01,0.014-0.02,0.028-0.029,0.043c-0.009,0.016-0.016,0.033-0.023,0.05
								c-0.006,0.014-0.014,0.028-0.019,0.043c-0.007,0.021-0.012,0.042-0.017,0.064c-0.003,0.012-0.007,0.024-0.009,0.036
								c-0.006,0.035-0.009,0.07-0.009,0.106v2.387c-2.17,0.297-4.396,1.45-5.986,3.15v0c-0.001,0.001-0.002,0.002-0.002,0.003
								c-0.05,0.053-0.099,0.107-0.147,0.161c-1.152,1.47-1.879,3.444-1.879,5.405c0,0.351,0.022,0.695,0.063,1.032
								c0.027,0.222,0.063,0.441,0.108,0.656c0.001,0.006,0.003,0.011,0.004,0.017c0.019,0.093,0.041,0.184,0.063,0.276
								c0.04,0.161,0.084,0.319,0.133,0.476c0.049,0.155,0.101,0.307,0.159,0.458c0.036,0.094,0.074,0.186,0.113,0.278
								c0.008,0.019,0.016,0.038,0.024,0.056c0.081,0.185,0.169,0.366,0.263,0.544c0.103,0.193,0.213,0.382,0.331,0.566
								c0.008,0.012,0.016,0.024,0.024,0.036c0.09,0.139,0.184,0.275,0.283,0.409c0.045,0.061,0.092,0.122,0.139,0.182
								c0.102,0.129,0.207,0.256,0.317,0.38c0.001,0.001,0.003,0.003,0.004,0.004c1.337,1.523,3.629,2.783,5.574,3.11
								c-0.112,0.164-0.246,0.312-0.395,0.442c-0.054,0.047-0.11,0.092-0.168,0.133c-0.046,0.033-0.094,0.063-0.142,0.093
								c-0.259,0.157-0.551,0.264-0.864,0.305c-0.093,0.012-0.188,0.018-0.284,0.018v0c0,0,0,0,0,0v1.203l0,0v0.143
								c0,0.115,0.046,0.219,0.12,0.296c-1.388-0.289-2.685-0.826-3.841-1.565c-2.944-1.883-4.975-5.067-5.284-8.74v-1.959
								c0.309-3.674,2.34-6.858,5.284-8.74c1.791-1.146,3.92-1.815,6.204-1.815c0,0,0.274,0,0.274,0
								C438.328,661.799,438.309,661.804,438.293,661.809z"/>
							<path fill="#4F4E4F" d="M436.867,682.559c0.058-0.042,0.114-0.086,0.168-0.133
								C436.982,682.473,436.926,682.518,436.867,682.559z"/>
						</g>
						<path fill="#4F4E4F" d="M437.921,662.099c0.008-0.015,0.019-0.029,0.029-0.043
							C437.939,662.07,437.929,662.084,437.921,662.099z"/>
						<path fill="#4F4E4F" d="M435.861,682.957c-0.093,0.012-0.188,0.018-0.284,0.018l0,0
							C435.674,682.975,435.768,682.969,435.861,682.957z"/>
						<path fill="#4F4E4F" d="M438.125,661.883c0.017-0.011,0.035-0.02,0.053-0.029C438.16,661.862,438.142,661.872,438.125,661.883
							z"/>
						<path fill="#4F4E4F" d="M437.977,662.016c0.012-0.015,0.025-0.028,0.038-0.041
							C438.002,661.988,437.988,662.001,437.977,662.016z"/>
					</g>
				</g>
			</g>
		</g>
	</g>
</g>
</svg>
